<?xml version="1.0" encoding="utf-8"?>
<!-- Generator: Adobe Illustrator 24.2.0, SVG Export Plug-In . SVG Version: 6.00 Build 0)  -->
<svg version="1.1" id="Layer_1" xmlns="http://www.w3.org/2000/svg" xmlns:xlink="http://www.w3.org/1999/xlink" x="0px" y="0px"
	 viewBox="0 0 20.8 20.8" style="enable-background:new 0 0 20.8 20.8;" xml:space="preserve">
<style type="text/css">
	.st0{fill:#282828;}
</style>
<path class="st0" d="M10.4,0C4.7,0,0,4.7,0,10.4s4.7,10.4,10.4,10.4s10.4-4.7,10.4-10.4S16.1,0,10.4,0L10.4,0z M10.4,18.9
	c-4.7,0-8.5-3.8-8.5-8.5s3.8-8.5,8.5-8.5s8.5,3.8,8.5,8.5S15.1,18.9,10.4,18.9L10.4,18.9z"/>
<g>
	<path class="st0" d="M14.9,5.4c0.1,0,0.1,0.1,0.2,0.3c0,0.1,0.1,0.3,0.1,0.6s0,0.4-0.1,0.6c0,0.1-0.1,0.2-0.2,0.3
		c-0.1,0-0.2,0.1-0.3,0.1h-0.5l-2.3,3.2l2.5,3.4h0.5c0.1,0,0.2,0,0.3,0.1s0.1,0.1,0.2,0.3s0.1,0.3,0.1,0.6s0,0.4-0.1,0.6
		s-0.1,0.2-0.2,0.3c-0.1,0-0.2,0.1-0.3,0.1h-3.5c-0.1,0-0.2,0-0.3-0.1c-0.1,0-0.1-0.1-0.2-0.3s-0.1-0.3-0.1-0.6s0-0.4,0.1-0.6
		s0.1-0.2,0.2-0.3c0.1,0,0.2-0.1,0.3-0.1h0.4l-1.5-2.1l-1.5,2.1H9c0.1,0,0.2,0,0.3,0.1s0.1,0.1,0.2,0.3s0.1,0.3,0.1,0.6
		s0,0.4-0.1,0.6s-0.1,0.2-0.2,0.3c-0.1,0-0.2,0.1-0.3,0.1H5.9c-0.1,0-0.2,0-0.3-0.1c-0.1,0-0.1-0.1-0.2-0.3c0-0.1-0.1-0.3-0.1-0.6
		s0-0.4,0.1-0.6c0-0.1,0.1-0.2,0.2-0.3s0.2-0.1,0.3-0.1h0.5L9,10.2L6.7,7.1H6.2C6,7.1,5.9,7,5.9,7C5.8,7,5.8,6.9,5.7,6.7
		c0-0.1-0.1-0.3-0.1-0.6s0-0.4,0.1-0.6c0-0.1,0.1-0.2,0.2-0.3S6,5.3,6.2,5.3h3.4c0.1,0,0.2,0,0.3,0.1c0.1,0,0.1,0.1,0.2,0.3
		c0,0.1,0.1,0.3,0.1,0.6s0,0.4-0.1,0.6C10,6.9,10,6.9,9.9,7C9.8,7,9.7,7.1,9.6,7.1H9.2l1.3,1.8l1.2-1.8h-0.2c-0.1,0-0.2,0-0.3-0.1
		c-0.1,0-0.1-0.1-0.2-0.3c0-0.1,0-0.3,0-0.5s0-0.4,0.1-0.6c0-0.1,0.1-0.2,0.2-0.3c0.1,0,0.2-0.1,0.3-0.1h3.1
		C14.8,5.3,14.9,5.3,14.9,5.4z"/>
</g>
</svg>
