<svg id="Layer_1" data-name="Layer 1" xmlns="http://www.w3.org/2000/svg" viewBox="0 0 352.71 176.91"><defs><style>.cls-1{fill:#f2de80;}.cls-2{fill:#1928d3;}</style></defs><title>pp-words</title><path class="cls-1" d="M-32.69,413.76a7.07,7.07,0,0,1-2.42-.43,7.09,7.09,0,0,1-4.24-9.08C-38.18,401-37,397.6-35.71,394c10.64-30.35,25.21-71.91,56.1-94.11,17.78-12.77,69-18.28,123.21-24.11,49-5.27,104.44-11.24,121.51-22.54,32.28-21.38,46.68-47.39,53.08-65.45,8.18-23.11,7.93-47.13-.7-65.9-15.13-32.93-52.17-44.65-99.07-31.34-35.25,10-67.09,11.44-94.61,4.27C99.65,88.51,79.49,75.91,63.87,57.35A126.68,126.68,0,0,1,36.43-2.94C33-23.61,35.18-44,42.29-58.75,53.1-81.23,47.57-114,28.2-142.33c-16.58-24.21-39.5-38.9-58.39-37.42a7.09,7.09,0,0,1-7.62-6.51,7.09,7.09,0,0,1,6.51-7.62c24.24-1.9,51.5,14.79,71.19,43.54a127.7,127.7,0,0,1,20.39,48C63.71-84,61.9-66.84,55.06-52.6,43.41-28.37,47.57,16,74.71,48.23c13.69,16.27,31.41,27.32,52.67,32.86,25.05,6.52,54.38,5.11,87.18-4.19,28.08-8,52.86-8,73.66-.2A74.32,74.32,0,0,1,330.37,116c19,41.27,5.28,107.55-57.43,149.08-20,13.21-72.35,18.85-127.82,24.82C97.45,295,43.41,300.8,28.67,311.39c-27.27,19.59-41,58.71-51,87.28-1.29,3.67-2.51,7.17-3.7,10.42A7.09,7.09,0,0,1-32.69,413.76Z"/><path class="cls-2" d="M20.47,37l4,8.91L25.89,37l1.51-.21L31.32,45l1.59-9.71,2.5-.34L32.89,47.7,30.55,48l-3.24-6.57L26,48.65,23.64,49,18,37.3Z"/><path class="cls-2" d="M44.61,39.31A5.16,5.16,0,0,1,45,40.73a8.53,8.53,0,0,1,.09,1.2l-5.91.81A3.21,3.21,0,0,0,40,44.47a1.8,1.8,0,0,0,1.64.49,1.48,1.48,0,0,0,1.47-1.43l2.24-.31a3.32,3.32,0,0,1-1,2.34,4.19,4.19,0,0,1-2.5,1.19,4,4,0,0,1-3.21-.9,5,5,0,0,1-1.74-3.35,5,5,0,0,1,.78-3.71,4,4,0,0,1,2.86-1.69,3.58,3.58,0,0,1,3.14.93A4.21,4.21,0,0,1,44.61,39.31Zm-3.77-.46a1.85,1.85,0,0,0-1.38.81A2.77,2.77,0,0,0,39,41.32l3.9-.53a2.08,2.08,0,0,0-1.21-1.87A1.86,1.86,0,0,0,40.84,38.85Z"/><path class="cls-2" d="M55.37,35.06a4,4,0,0,1,1.59.08,3.65,3.65,0,0,1,1.26.6,3.71,3.71,0,0,1,1.42,2.13l-2.23.36a2.08,2.08,0,0,0-.69-.92,1.31,1.31,0,0,0-1-.27,2.32,2.32,0,0,0-.88.28,1.76,1.76,0,0,0-.59.59,3.41,3.41,0,0,0-.34,2.27,3.19,3.19,0,0,0,.89,2,1.87,1.87,0,0,0,1.55.51,1.67,1.67,0,0,0,1.19-.57A1.55,1.55,0,0,0,57.79,41L60,40.67a3.43,3.43,0,0,1-.66,2.64,3.88,3.88,0,0,1-2.7,1.41,4,4,0,0,1-3.21-.9,5,5,0,0,1-1.78-3.34,4.93,4.93,0,0,1,.81-3.73A4.11,4.11,0,0,1,55.37,35.06Z"/><path class="cls-2" d="M65.43,37.81a10.69,10.69,0,0,1,2.57,0l-.12-.9a2.21,2.21,0,0,0-.58-1.37A1.57,1.57,0,0,0,66,35.26a2.25,2.25,0,0,0-1.3.53,1.17,1.17,0,0,0-.34,1.05l-2.43.33a2.49,2.49,0,0,1,.79-2.41,5.8,5.8,0,0,1,3-1.12q2.82-.39,3.92,1.48a4.18,4.18,0,0,1,.5,1.56l.8,5.82L69,42.77l-.34-1.2a3,3,0,0,1-2.51,1.86,4,4,0,0,1-2.87-.49,2.75,2.75,0,0,1-1.19-2,2.26,2.26,0,0,1,.73-2.09A4.79,4.79,0,0,1,65.43,37.81Zm2.76,1.42a8,8,0,0,0-2.11,0q-1.81.25-1.64,1.45a1.14,1.14,0,0,0,.53.82,2,2,0,0,0,1.38.19,2,2,0,0,0,1.42-.82A2.28,2.28,0,0,0,68.19,39.23Z"/><path class="cls-2" d="M75.29,34.2a3.36,3.36,0,0,1,5.35-1.46,4.72,4.72,0,0,1,1.26,2.82l.73,5.35-2.22.3-.73-5.35a2.18,2.18,0,0,0-.7-1.47,1.82,1.82,0,0,0-1.44-.33,1.9,1.9,0,0,0-1.41,1,4,4,0,0,0-.34,2.46l.58,4.23-2.22.3-1.25-9.15,1.94-.27Z"/><path class="cls-2" d="M91.58,31.62A2.88,2.88,0,0,1,94,29.78a3.88,3.88,0,0,1,3.07.88A5,5,0,0,1,98.84,34,5,5,0,0,1,98,37.76a3.85,3.85,0,0,1-2.7,1.67,2.93,2.93,0,0,1-2.58-.66L93.46,44l-2.22.3L89.37,30.66l1.83-.25Zm3.08,5.85a2.22,2.22,0,0,0,.8-.28,2.16,2.16,0,0,0,.69-.63,3,3,0,0,0,.46-2.22,3.11,3.11,0,0,0-.93-2A2,2,0,0,0,94,31.81a2.2,2.2,0,0,0-1.45.75,2.09,2.09,0,0,0-.42,1.62l.22,1.64a1.83,1.83,0,0,0,.82,1.35A2.12,2.12,0,0,0,94.66,37.47Z"/><path class="cls-2" d="M103.32,30.59a2.71,2.71,0,0,1,2.21-2.32,3.28,3.28,0,0,1,.83,0l.27,2.23a5,5,0,0,0-1.05,0q-2.22.3-1.8,3.37l.55,4-2.22.3-1.25-9.17,2.22-.3Z"/><path class="cls-2" d="M112.24,27.28a5.12,5.12,0,0,1,1.77.05,3.66,3.66,0,0,1,1.51.7,5,5,0,0,1,1.8,3.47,5,5,0,0,1-.8,3.79,4.19,4.19,0,0,1-3,1.63,4.32,4.32,0,0,1-3.33-.77,4.93,4.93,0,0,1-1.79-3.44,5,5,0,0,1,.8-3.83A4.31,4.31,0,0,1,112.24,27.28Zm2.86,4.52a3.53,3.53,0,0,0-.86-2.1,1.9,1.9,0,0,0-1.67-.51,2.12,2.12,0,0,0-1.55,1,3.23,3.23,0,0,0-.34,2.26,3.49,3.49,0,0,0,.87,2.1,1.91,1.91,0,0,0,1.67.51,2.11,2.11,0,0,0,1.54-.95A3.23,3.23,0,0,0,115.1,31.8Z"/><path class="cls-2" d="M125.71,34.78a5.83,5.83,0,0,1-1.89.76,4.22,4.22,0,0,1-1.28,0,2.85,2.85,0,0,1-1-.38,2.73,2.73,0,0,1-1.16-2l-.7-5.12-1.28.18-.2-1.49,1.28-.18-.33-2.41,2.22-.3.33,2.41,2.48-.34.2,1.49-2.48.34.69,5q.15,1.13,1.23,1a4.56,4.56,0,0,0,1.37-.49Z"/><path class="cls-2" d="M134.19,27.06a5.16,5.16,0,0,1,.43,1.42,8.53,8.53,0,0,1,.09,1.2l-5.91.81a3.21,3.21,0,0,0,.79,1.73,1.8,1.8,0,0,0,1.64.49,1.48,1.48,0,0,0,1.47-1.43l2.24-.31a3.32,3.32,0,0,1-1,2.34,4.19,4.19,0,0,1-2.5,1.19,4,4,0,0,1-3.21-.9,5,5,0,0,1-1.74-3.35,5,5,0,0,1,.78-3.71,4,4,0,0,1,2.86-1.69,3.58,3.58,0,0,1,3.14.93A4.21,4.21,0,0,1,134.19,27.06Zm-3.77-.46a1.85,1.85,0,0,0-1.38.81,2.77,2.77,0,0,0-.41,1.66l3.9-.53a2.08,2.08,0,0,0-1.21-1.87A1.86,1.86,0,0,0,130.42,26.6Z"/><path class="cls-2" d="M140.19,23.46a4,4,0,0,1,1.59.08,3.65,3.65,0,0,1,1.26.6,3.71,3.71,0,0,1,1.42,2.13l-2.23.36a2.08,2.08,0,0,0-.69-.92,1.31,1.31,0,0,0-1-.27,2.32,2.32,0,0,0-.88.28,1.76,1.76,0,0,0-.59.59,3.41,3.41,0,0,0-.34,2.27,3.19,3.19,0,0,0,.89,2,1.87,1.87,0,0,0,1.55.51,1.67,1.67,0,0,0,1.19-.57,1.55,1.55,0,0,0,.24-1.15l2.24-.31a3.43,3.43,0,0,1-.66,2.64,3.88,3.88,0,0,1-2.7,1.41,4,4,0,0,1-3.21-.9,5,5,0,0,1-1.78-3.34,4.93,4.93,0,0,1,.81-3.73A4.11,4.11,0,0,1,140.19,23.46Z"/><path class="cls-2" d="M153.09,31a5.83,5.83,0,0,1-1.89.76,4.22,4.22,0,0,1-1.28,0,2.85,2.85,0,0,1-1-.38,2.73,2.73,0,0,1-1.16-2l-.7-5.12-1.28.18-.2-1.49,1.28-.18-.33-2.41,2.22-.3.33,2.41,2.48-.34.2,1.49-2.48.34.69,5q.15,1.13,1.23,1a4.56,4.56,0,0,0,1.37-.49Z"/><path class="cls-2" d="M105.59,55.51q0,1.31,1.9,1.34a2.08,2.08,0,0,0,1.19-.3.89.89,0,0,0,.48-.72.78.78,0,0,0-.28-.65,2.8,2.8,0,0,0-.89-.43L106,54q-2.23-.81-2.2-2.58a2.18,2.18,0,0,1,1.08-1.87,5,5,0,0,1,2.84-.67,4.24,4.24,0,0,1,2.72.82,2.53,2.53,0,0,1,1,2l-2.11,0a.93.93,0,0,0-.43-.73,2.05,2.05,0,0,0-1.14-.28,1.94,1.94,0,0,0-1.15.28.83.83,0,0,0-.42.67q0,.67,1.11,1l2.17.85a4.33,4.33,0,0,1,1.65.95,1.93,1.93,0,0,1,.56,1.46,2.45,2.45,0,0,1-1.11,2,4.69,4.69,0,0,1-3,.83,5,5,0,0,1-3-.85,2.68,2.68,0,0,1-1.11-2.29Z"/><path class="cls-2" d="M117.42,53.1a10.69,10.69,0,0,1,2.54.4v-.91a2.21,2.21,0,0,0-.37-1.44,1.57,1.57,0,0,0-1.27-.48A2.25,2.25,0,0,0,117,51a1.17,1.17,0,0,0-.49,1L114,52a2.49,2.49,0,0,1,1.14-2.26A5.8,5.8,0,0,1,118.3,49q2.85,0,3.66,2a4.18,4.18,0,0,1,.26,1.62l-.09,5.87-2,0L120,57.3a3,3,0,0,1-2.76,1.46,4,4,0,0,1-2.76-.91,2.75,2.75,0,0,1-.88-2.13,2.26,2.26,0,0,1,1-2A4.79,4.79,0,0,1,117.42,53.1Zm2.52,1.82a8,8,0,0,0-2.08-.33q-1.82,0-1.84,1.19a1.14,1.14,0,0,0,.41.89,2,2,0,0,0,1.33.39,2,2,0,0,0,1.53-.59A2.28,2.28,0,0,0,119.94,54.93Z"/><path class="cls-2" d="M127.71,51a3.36,3.36,0,0,1,5.51-.64,4.72,4.72,0,0,1,.82,3L134,58.74l-2.24,0,.08-5.39a2.18,2.18,0,0,0-.47-1.55,1.82,1.82,0,0,0-1.38-.54,1.9,1.9,0,0,0-1.54.78,4,4,0,0,0-.71,2.38l-.06,4.27-2.24,0,.14-9.23,2,0Z"/><path class="cls-2" d="M140.88,49.36a4,4,0,0,1,1.56.32,3.65,3.65,0,0,1,1.16.79,3.71,3.71,0,0,1,1.09,2.31l-2.26,0a2.08,2.08,0,0,0-.55-1,1.31,1.31,0,0,0-.93-.41,2.32,2.32,0,0,0-.91.15,1.76,1.76,0,0,0-.67.49,3.41,3.41,0,0,0-.68,2.19,3.19,3.19,0,0,0,.58,2.13,1.87,1.87,0,0,0,1.46.73,1.67,1.67,0,0,0,1.26-.39,1.55,1.55,0,0,0,.41-1.11l2.26,0a3.43,3.43,0,0,1-1,2.51,3.88,3.88,0,0,1-2.88,1,4,4,0,0,1-3-1.37,5,5,0,0,1-1.26-3.57,4.93,4.93,0,0,1,1.36-3.57A4.11,4.11,0,0,1,140.88,49.36Z"/><path class="cls-2" d="M152.5,58.79a5.83,5.83,0,0,1-2,.46,4.22,4.22,0,0,1-1.26-.19,2.85,2.85,0,0,1-1-.53,2.73,2.73,0,0,1-.84-2.16l.08-5.17-1.29,0,0-1.5,1.29,0,0-2.43,2.24,0,0,2.43,2.51,0,0,1.5-2.51,0-.07,5.09q0,1.14,1.07,1.16a4.56,4.56,0,0,0,1.43-.28Z"/><path class="cls-2" d="M161,57.47a2.92,2.92,0,0,1-2.84,1.8,3.12,3.12,0,0,1-3.2-2,4.09,4.09,0,0,1-.26-1.62l.09-5.89,2.24,0-.08,5.66a1.87,1.87,0,0,0,.42,1.36,1.44,1.44,0,0,0,1.07.46,2.82,2.82,0,0,0,1.08-.16,2.07,2.07,0,0,0,.77-.53,3.39,3.39,0,0,0,.77-2.17l.07-4.56,2.24,0-.14,9.25-2.24,0Z"/><path class="cls-2" d="M169.82,53.87a10.69,10.69,0,0,1,2.54.4v-.91a2.21,2.21,0,0,0-.37-1.44,1.57,1.57,0,0,0-1.27-.48,2.25,2.25,0,0,0-1.36.33,1.17,1.17,0,0,0-.49,1l-2.45,0a2.49,2.49,0,0,1,1.14-2.26,5.8,5.8,0,0,1,3.12-.66q2.85,0,3.66,2a4.18,4.18,0,0,1,.26,1.62l-.09,5.87-2,0-.15-1.24a3,3,0,0,1-2.76,1.46,4,4,0,0,1-2.76-.91,2.75,2.75,0,0,1-.88-2.13,2.26,2.26,0,0,1,1-2A4.79,4.79,0,0,1,169.82,53.87Zm2.52,1.82a8,8,0,0,0-2.08-.33q-1.82,0-1.84,1.19a1.14,1.14,0,0,0,.41.89,2,2,0,0,0,1.33.39,2,2,0,0,0,1.53-.59A2.28,2.28,0,0,0,172.34,55.7Z"/><path class="cls-2" d="M180.15,52a2.71,2.71,0,0,1,2.54-2,3.28,3.28,0,0,1,.82.14l-.07,2.24a5,5,0,0,0-1-.13q-2.24,0-2.29,3.06l-.06,4-2.24,0,.14-9.25,2.24,0Z"/><path class="cls-2" d="M187,50.29,189.1,57l2-6.62,2.28,0-3.69,10.85a5.59,5.59,0,0,1-1.37,2.35,2.85,2.85,0,0,1-2,.69,5.55,5.55,0,0,1-2.46-.64l0-2a3.69,3.69,0,0,0,2,.66,1.34,1.34,0,0,0,1.1-.52,4.17,4.17,0,0,0,.71-1.38l.3-.89-3.57-9.29Z"/><path class="cls-2" d="M208,51.68a5.1,5.1,0,0,1,1.12,3.51,5.22,5.22,0,0,1-1.29,3.55,3.83,3.83,0,0,1-3,1.3,2.85,2.85,0,0,1-1.56-.48,3.08,3.08,0,0,1-1.11-1.42l-.57,1.59-1.46,0,.19-13,2.24,0-.07,5a2.88,2.88,0,0,1,2.63-1.37A3.71,3.71,0,0,1,208,51.68Zm-5.56,2.88,0,1.22a2.22,2.22,0,0,0,.68,1.61,2.11,2.11,0,0,0,1.52.63,1.94,1.94,0,0,0,1.56-.77,3.18,3.18,0,0,0,.68-2.07,3.13,3.13,0,0,0-.61-2.07,2,2,0,0,0-1.57-.79,2.14,2.14,0,0,0-1.59.6A2.23,2.23,0,0,0,202.39,54.56Z"/><path class="cls-2" d="M213,50.67l2.12,6.68,2-6.62,2.28,0-3.69,10.85A5.59,5.59,0,0,1,214.38,64a2.85,2.85,0,0,1-2,.69,5.55,5.55,0,0,1-2.46-.64l0-2a3.69,3.69,0,0,0,2,.66,1.34,1.34,0,0,0,1.1-.52,4.17,4.17,0,0,0,.71-1.38l.3-.89-3.57-9.29Z"/><path class="cls-2" d="M229.23,54.75a10.69,10.69,0,0,1,2.54.4v-.91a2.21,2.21,0,0,0-.37-1.44,1.57,1.57,0,0,0-1.27-.48,2.25,2.25,0,0,0-1.36.33,1.17,1.17,0,0,0-.49,1l-2.45,0A2.49,2.49,0,0,1,227,51.33a5.8,5.8,0,0,1,3.12-.66q2.85,0,3.66,2a4.18,4.18,0,0,1,.26,1.62l-.09,5.87-2,0-.15-1.24a3,3,0,0,1-2.76,1.46,4,4,0,0,1-2.76-.91,2.75,2.75,0,0,1-.88-2.13,2.26,2.26,0,0,1,1-2A4.79,4.79,0,0,1,229.23,54.75Zm2.52,1.82a8,8,0,0,0-2.08-.33q-1.82,0-1.84,1.19a1.14,1.14,0,0,0,.41.89,2,2,0,0,0,1.33.39,2,2,0,0,0,1.53-.59A2.28,2.28,0,0,0,231.75,56.57Z"/><path class="cls-2" d="M240.86,50.83a4,4,0,0,1,1.56.32,3.65,3.65,0,0,1,1.16.79,3.71,3.71,0,0,1,1.09,2.31l-2.26,0a2.08,2.08,0,0,0-.55-1,1.31,1.31,0,0,0-.93-.41A2.32,2.32,0,0,0,240,53a1.76,1.76,0,0,0-.67.49,3.41,3.41,0,0,0-.68,2.19,3.19,3.19,0,0,0,.58,2.13,1.87,1.87,0,0,0,1.46.73,1.67,1.67,0,0,0,1.26-.39,1.55,1.55,0,0,0,.41-1.11l2.26,0a3.43,3.43,0,0,1-1,2.51,3.88,3.88,0,0,1-2.88,1,4,4,0,0,1-3-1.37,5,5,0,0,1-1.26-3.57,4.93,4.93,0,0,1,1.36-3.57A4.11,4.11,0,0,1,240.86,50.83Z"/><path class="cls-2" d="M252.48,60.26a5.83,5.83,0,0,1-2,.46,4.22,4.22,0,0,1-1.26-.19,2.85,2.85,0,0,1-1-.53,2.73,2.73,0,0,1-.84-2.16l.08-5.17-1.29,0,0-1.5,1.29,0,0-2.43,2.24,0,0,2.43,2.51,0,0,1.5-2.51,0-.07,5.09q0,1.14,1.07,1.16a4.56,4.56,0,0,0,1.43-.28Z"/><path class="cls-2" d="M254.88,48.3a1.27,1.27,0,0,1,.38-1,1.66,1.66,0,0,1,2,0,1.43,1.43,0,0,1,0,1.92,1.66,1.66,0,0,1-2,0A1.27,1.27,0,0,1,254.88,48.3Zm.22,3,2.24,0-.14,9.25-2.24,0Z"/><path class="cls-2" d="M262.18,51.39l2,7,2.23-7,2.58,0-3.57,9.18-2.53,0-3.3-9.28Z"/><path class="cls-2" d="M278.11,54.14a5.16,5.16,0,0,1,.22,1.47,8.53,8.53,0,0,1-.09,1.2l-6-.09a3.21,3.21,0,0,0,.52,1.83,1.8,1.8,0,0,0,1.55.73A1.48,1.48,0,0,0,276,58.08l2.26,0a3.32,3.32,0,0,1-1.3,2.17,4.19,4.19,0,0,1-2.65.8,4,4,0,0,1-3-1.37,5,5,0,0,1-1.22-3.57,5,5,0,0,1,1.32-3.55,4,4,0,0,1,3.08-1.25,3.58,3.58,0,0,1,3,1.39A4.21,4.21,0,0,1,278.11,54.14Zm-3.66-1a1.85,1.85,0,0,0-1.49.6,2.77,2.77,0,0,0-.65,1.58l3.93.06a2.08,2.08,0,0,0-.92-2A1.86,1.86,0,0,0,274.45,53.11Z"/><path class="cls-2" d="M281.12,47.87l2.24,0-.19,13-2.24,0Z"/><path class="cls-2" d="M288,51.77l2.12,6.68,2-6.62,2.28,0-3.69,10.85a5.59,5.59,0,0,1-1.37,2.35,2.85,2.85,0,0,1-2,.69,5.55,5.55,0,0,1-2.46-.64l0-2a3.69,3.69,0,0,0,2,.66,1.34,1.34,0,0,0,1.1-.52,4.17,4.17,0,0,0,.71-1.38L289,61l-3.57-9.29Z"/><path class="cls-2" d="M114.75,113.14l.82,6.8,2.68-5.73,2,.31.8,6.3,2.88-6.24,2.21.35-4.43,8.65-2.18-.34-.84-5.72-2.5,5.2-2.2-.34-1.6-9.59Z"/><path class="cls-2" d="M131.8,115.55a5.12,5.12,0,0,1,1.68.56,3.66,3.66,0,0,1,1.25,1.11,5,5,0,0,1,.73,3.84,5,5,0,0,1-1.86,3.4,4.19,4.19,0,0,1-3.3.71,4.32,4.32,0,0,1-3-1.69,4.93,4.93,0,0,1-.73-3.81,5,5,0,0,1,1.86-3.44A4.31,4.31,0,0,1,131.8,115.55Zm1.44,5.15a3.53,3.53,0,0,0-.22-2.26,1.9,1.9,0,0,0-1.45-1,2.12,2.12,0,0,0-1.75.47,3.23,3.23,0,0,0-1,2.07,3.49,3.49,0,0,0,.23,2.26,1.91,1.91,0,0,0,1.45,1,2.11,2.11,0,0,0,1.75-.47A3.23,3.23,0,0,0,133.24,120.7Z"/><path class="cls-2" d="M140.73,119a2.71,2.71,0,0,1,2.79-1.58,3.28,3.28,0,0,1,.79.26l-.38,2.21a5,5,0,0,0-1-.27q-2.21-.35-2.69,2.71l-.62,4-2.21-.35,1.43-9.14,2.21.35Z"/><path class="cls-2" d="M149.1,123.29,148,124l-.56,3.6-2.21-.35,2-12.87,2.21.35-1.09,7,4.11-2.65,3,.47-4.56,2.75,3.36,6.41-2.7-.42Z"/><path class="cls-2" d="M157.78,116.85a1.27,1.27,0,0,1,.5-.89,1.66,1.66,0,0,1,2,.32,1.43,1.43,0,0,1-.3,1.9,1.66,1.66,0,0,1-2-.32A1.27,1.27,0,0,1,157.78,116.85Zm-.19,3,2.21.35-1.43,9.14-2.21-.35Z"/><path class="cls-2" d="M165.48,122.68a3.36,3.36,0,0,1,5.54.14,4.72,4.72,0,0,1,.4,3.06l-.83,5.33-2.21-.35.83-5.33a2.18,2.18,0,0,0-.25-1.61,1.82,1.82,0,0,0-1.29-.73,1.9,1.9,0,0,0-1.63.55,4,4,0,0,0-1,2.26l-.66,4.22-2.21-.35,1.43-9.12,1.93.3Z"/><path class="cls-2" d="M175.19,128.1a3,3,0,0,1-.74-2.52,3,3,0,0,1,1.54-2.22,4.12,4.12,0,0,1,2.72-.48,5,5,0,0,1,2.35.92,2.5,2.5,0,0,1,1.19-1.58,2.85,2.85,0,0,1,2-.37l-.44,2.1q-1.61-.25-1.84.81a2.83,2.83,0,0,1,.42,1.87,3.27,3.27,0,0,1-.56,1.46,3.06,3.06,0,0,1-1,.89,4.3,4.3,0,0,1-2.88.47,4.78,4.78,0,0,1-1.63-.54.91.91,0,0,0-.89.78q-.13.84,1.29,1.07l3.06.48q3.11.49,2.77,2.66a3.11,3.11,0,0,1-.59,1.38,3.89,3.89,0,0,1-1.26,1.08,6.17,6.17,0,0,1-4.05.6,6.67,6.67,0,0,1-3.52-1.49,2.59,2.59,0,0,1-1-2.36,1.8,1.8,0,0,1,.73-1.26,2.47,2.47,0,0,1,1.46-.42,2,2,0,0,1-.85-1.84,1.56,1.56,0,0,1,.58-1A2.32,2.32,0,0,1,175.19,128.1Zm1.07,4.2q-1.78-.2-2,1.06a1.16,1.16,0,0,0,.58,1.14,3.81,3.81,0,0,0,1.69.66,5.91,5.91,0,0,0,1.61.08,3.26,3.26,0,0,0,1-.3,1.64,1.64,0,0,0,1.06-1.22.73.73,0,0,0-.15-.59,1,1,0,0,0-.65-.32Zm3.86-5.87a1.82,1.82,0,0,0-.23-1.3,1.65,1.65,0,0,0-1.21-.68,1.63,1.63,0,0,0-2,1.44,1.79,1.79,0,0,0,.26,1.32,1.72,1.72,0,0,0,1.24.69,1.63,1.63,0,0,0,1.36-.29A1.86,1.86,0,0,0,180.12,126.44Z"/><path class="cls-2" d="M194.66,134.74a5.83,5.83,0,0,1-2,.18,4.22,4.22,0,0,1-1.22-.36,2.85,2.85,0,0,1-.87-.65,2.73,2.73,0,0,1-.53-2.26l.8-5.1-1.28-.2.23-1.48,1.28.2.38-2.4,2.21.35-.38,2.4,2.48.39-.23,1.48-2.48-.39-.79,5a1,1,0,0,0,.89,1.29,4.56,4.56,0,0,0,1.45-.08Z"/><path class="cls-2" d="M201.95,126.51a5.12,5.12,0,0,1,1.68.56,3.66,3.66,0,0,1,1.25,1.11,5,5,0,0,1,.73,3.84,5,5,0,0,1-1.86,3.4,4.19,4.19,0,0,1-3.3.71,4.32,4.32,0,0,1-3-1.69,4.93,4.93,0,0,1-.73-3.81,5,5,0,0,1,1.86-3.44A4.31,4.31,0,0,1,201.95,126.51Zm1.44,5.15a3.53,3.53,0,0,0-.22-2.26,1.9,1.9,0,0,0-1.45-1,2.12,2.12,0,0,0-1.75.47,3.23,3.23,0,0,0-1,2.07,3.49,3.49,0,0,0,.23,2.26,1.91,1.91,0,0,0,1.45,1,2.11,2.11,0,0,0,1.75-.47A3.23,3.23,0,0,0,203.39,131.66Z"/><path class="cls-2" d="M221.53,131.59a3.17,3.17,0,0,1,3.4-1.49,3.12,3.12,0,0,1,2.36,1.5,4.54,4.54,0,0,1,.41,3.06l-.83,5.33-2.23-.35.83-5.33a2.17,2.17,0,0,0-.25-1.61,1.82,1.82,0,0,0-1.29-.73,1.74,1.74,0,0,0-1.57.54,4.16,4.16,0,0,0-1,2.23l-.67,4.28-2.21-.35.83-5.33a2.18,2.18,0,0,0-.25-1.61,1.82,1.82,0,0,0-1.29-.73,1.9,1.9,0,0,0-1.63.55,4,4,0,0,0-1,2.26l-.66,4.22-2.21-.35,1.43-9.12,1.93.3v1.61a3.05,3.05,0,0,1,3.17-1.37,3.31,3.31,0,0,1,1.82.82A3.2,3.2,0,0,1,221.53,131.59Z"/><path class="cls-2" d="M233.92,135.64a10.69,10.69,0,0,1,2.46.75l.14-.9a2.21,2.21,0,0,0-.16-1.48,1.57,1.57,0,0,0-1.19-.66,2.25,2.25,0,0,0-1.4.14,1.17,1.17,0,0,0-.62.91l-2.42-.38a2.49,2.49,0,0,1,1.45-2.08,5.8,5.8,0,0,1,3.18-.21q2.82.44,3.33,2.54a4.18,4.18,0,0,1,0,1.64l-.91,5.8-1.93-.3,0-1.25a3,3,0,0,1-2.93,1.06,4,4,0,0,1-2.61-1.29,2.75,2.75,0,0,1-.57-2.23,2.26,2.26,0,0,1,1.3-1.8A4.79,4.79,0,0,1,233.92,135.64Zm2.24,2.16a8,8,0,0,0-2-.62q-1.8-.28-2,.92a1.14,1.14,0,0,0,.28.94,2,2,0,0,0,1.27.57,2,2,0,0,0,1.6-.38A2.28,2.28,0,0,0,236.16,137.8Z"/><path class="cls-2" d="M242.85,130.14a1.27,1.27,0,0,1,.5-.89,1.66,1.66,0,0,1,2,.32,1.43,1.43,0,0,1-.3,1.9,1.66,1.66,0,0,1-2-.32A1.27,1.27,0,0,1,242.85,130.14Zm-.19,3,2.21.35-1.43,9.14-2.21-.35Z"/><path class="cls-2" d="M250.55,136a3.36,3.36,0,0,1,5.54.14,4.72,4.72,0,0,1,.4,3.06l-.83,5.33-2.21-.35.83-5.33a2.18,2.18,0,0,0-.25-1.61,1.82,1.82,0,0,0-1.29-.73,1.9,1.9,0,0,0-1.63.55,4,4,0,0,0-1,2.26l-.66,4.22-2.21-.35,1.43-9.12,1.93.3Z"/><path class="cls-2" d="M264.07,145.58a5.83,5.83,0,0,1-2,.18,4.22,4.22,0,0,1-1.22-.36,2.85,2.85,0,0,1-.87-.65,2.73,2.73,0,0,1-.53-2.26l.8-5.1-1.28-.2.23-1.48,1.28.2.38-2.4,2.21.35-.38,2.4,2.48.39-.23,1.48-2.48-.39-.79,5a1,1,0,0,0,.89,1.29A4.56,4.56,0,0,0,264,144Z"/><path class="cls-2" d="M270.14,141.3a10.69,10.69,0,0,1,2.46.75l.14-.9a2.21,2.21,0,0,0-.16-1.48,1.57,1.57,0,0,0-1.19-.66,2.25,2.25,0,0,0-1.4.14,1.17,1.17,0,0,0-.62.91l-2.42-.38a2.49,2.49,0,0,1,1.45-2.08,5.8,5.8,0,0,1,3.18-.21q2.82.44,3.33,2.54a4.18,4.18,0,0,1,0,1.64l-.91,5.8-1.93-.3,0-1.25a3,3,0,0,1-2.93,1.06,4,4,0,0,1-2.61-1.29,2.75,2.75,0,0,1-.57-2.23,2.26,2.26,0,0,1,1.3-1.8A4.79,4.79,0,0,1,270.14,141.3Zm2.24,2.16a8,8,0,0,0-2-.62q-1.8-.28-2,.92a1.14,1.14,0,0,0,.28.94,2,2,0,0,0,1.27.57,2,2,0,0,0,1.6-.38A2.28,2.28,0,0,0,272.38,143.46Z"/><path class="cls-2" d="M279.07,135.8a1.27,1.27,0,0,1,.5-.89,1.66,1.66,0,0,1,2,.32,1.43,1.43,0,0,1-.3,1.9,1.66,1.66,0,0,1-2-.32A1.27,1.27,0,0,1,279.07,135.8Zm-.19,3,2.21.35-1.43,9.14-2.21-.35Z"/><path class="cls-2" d="M286.77,141.63a3.36,3.36,0,0,1,5.54.14,4.72,4.72,0,0,1,.4,3.06l-.83,5.33-2.21-.35.83-5.33a2.18,2.18,0,0,0-.25-1.61,1.82,1.82,0,0,0-1.29-.73,1.9,1.9,0,0,0-1.63.55,4,4,0,0,0-1,2.26l-.66,4.22-2.21-.35,1.43-9.12,1.93.3Z"/><path class="cls-2" d="M301.67,139.33a1.27,1.27,0,0,1,.5-.89,1.66,1.66,0,0,1,2,.32,1.43,1.43,0,0,1-.3,1.9,1.66,1.66,0,0,1-2-.32A1.27,1.27,0,0,1,301.67,139.33Zm-.19,3,2.21.35-1.43,9.14-2.21-.35Z"/><path class="cls-2" d="M311.19,152.95a5.83,5.83,0,0,1-2,.18,4.22,4.22,0,0,1-1.22-.36,2.85,2.85,0,0,1-.87-.65,2.73,2.73,0,0,1-.53-2.26l.8-5.1-1.28-.2.23-1.48,1.28.2.38-2.4,2.21.35-.38,2.4,2.48.39-.23,1.48-2.48-.39-.79,5a1,1,0,0,0,.89,1.29,4.56,4.56,0,0,0,1.45-.08Z"/><path class="cls-2" d="M312.6,153.15a1.41,1.41,0,0,1-.27-1.12,1.47,1.47,0,0,1,.6-1,1.52,1.52,0,0,1,1.17-.26,1.59,1.59,0,0,1,1.06.61,1.44,1.44,0,0,1,.28,1.14,1.38,1.38,0,0,1-.61,1,1.63,1.63,0,0,1-1.19.24A1.56,1.56,0,0,1,312.6,153.15Z"/></svg>