<svg id="Layer_1" data-name="Layer 1" xmlns="http://www.w3.org/2000/svg" viewBox="0 0 352.72 119.67"><defs><style>.cls-1{fill:#f2de80;}.cls-2{fill:#1928d3;}</style></defs><title>pp-words</title><path class="cls-1" d="M-45.47,248.6h-.39a7.3,7.3,0,0,1-6.9-7.67c.15-2.89,4.07-71.41,32.14-122C22.14,42,56.93,9.82,85.74,20.65c20,7.51,18,24.49,16.65,36.89-1.44,12.78-1.32,18.37,5.83,22.26,21.57,11.74,58.84-23.39,84.35-61A7.3,7.3,0,0,1,204.64,27c-29.19,43-71.69,82.88-103.4,65.62-16.49-9-14.68-25-13.36-36.71,1.51-13.4,1.28-18.38-7.28-21.59-19.73-7.42-52,26-88.46,91.74C-34.28,173.6-38.15,241-38.19,241.69A7.3,7.3,0,0,1-45.47,248.6Z"/><path class="cls-2" d="M51,38a4.46,4.46,0,0,1,1.6,3.48,4.46,4.46,0,0,1-1.26,3.62,5.87,5.87,0,0,1-3.92,1.43l-2.55.12.26,5.48-2.76.13-.72-15.06,5.31-.25A5.87,5.87,0,0,1,51,38Zm-3.69,6.14a2.56,2.56,0,0,0,1.89-.76,2.39,2.39,0,0,0,.57-1.76A2.43,2.43,0,0,0,49,39.88a2.54,2.54,0,0,0-2-.59l-2.55.12.23,4.83Z"/><path class="cls-2" d="M58.19,42.41q.9-2.48,2.95-2.58a4,4,0,0,1,1,.11l.08,2.74a6.09,6.09,0,0,0-1.28-.08q-2.74.13-2.56,3.91l.24,4.94-2.74.13-.54-11.3,2.74-.13Z"/><path class="cls-2" d="M73.87,42.49a6.32,6.32,0,0,1,.38,1.77,10.44,10.44,0,0,1,0,1.47l-7.28.35a3.92,3.92,0,0,0,.78,2.2,2.2,2.2,0,0,0,1.94.77,1.81,1.81,0,0,0,1.95-1.58l2.76-.13a4.05,4.05,0,0,1-1.43,2.74,5.12,5.12,0,0,1-3.18,1.17A4.9,4.9,0,0,1,66,49.8a6.17,6.17,0,0,1-1.76-4.26,6.1,6.1,0,0,1,1.35-4.44,4.92,4.92,0,0,1,3.66-1.76,4.38,4.38,0,0,1,3.72,1.47A5.15,5.15,0,0,1,73.87,42.49Zm-4.55-1a2.26,2.26,0,0,0-1.77.84,3.39,3.39,0,0,0-.67,2l4.8-.23a2.54,2.54,0,0,0-1.28-2.4A2.27,2.27,0,0,0,69.33,41.52Z"/><path class="cls-2" d="M79.19,47q.12,1.6,2.42,1.49A2.55,2.55,0,0,0,83,48.07a1.08,1.08,0,0,0,.53-.92,1,1,0,0,0-.39-.77,3.43,3.43,0,0,0-1.11-.46l-2.5-.76q-2.78-.82-2.89-3a2.67,2.67,0,0,1,1.18-2.37,6.09,6.09,0,0,1,3.42-1,5.19,5.19,0,0,1,3.39.79A3.1,3.1,0,0,1,86,41.89L83.42,42a1.13,1.13,0,0,0-.58-.86,2.51,2.51,0,0,0-1.41-.26,2.37,2.37,0,0,0-1.39.43,1,1,0,0,0-.46.85q0,.81,1.43,1.14l2.72.87a5.31,5.31,0,0,1,2.08,1A2.36,2.36,0,0,1,86.61,47a3,3,0,0,1-1.21,2.48,5.73,5.73,0,0,1-3.57,1.24,6.06,6.06,0,0,1-3.67-.81,3.28,3.28,0,0,1-1.52-2.71Z"/><path class="cls-2" d="M91.42,46.45q.12,1.6,2.42,1.49a2.55,2.55,0,0,0,1.43-.45,1.08,1.08,0,0,0,.53-.92,1,1,0,0,0-.39-.77,3.43,3.43,0,0,0-1.11-.46l-2.5-.76q-2.78-.82-2.89-3a2.67,2.67,0,0,1,1.18-2.37,6.09,6.09,0,0,1,3.42-1,5.19,5.19,0,0,1,3.39.79,3.1,3.1,0,0,1,1.33,2.33l-2.58.12a1.13,1.13,0,0,0-.58-.86,2.51,2.51,0,0,0-1.41-.26,2.37,2.37,0,0,0-1.39.43,1,1,0,0,0-.46.85q0,.81,1.43,1.14L96,43.6a5.31,5.31,0,0,1,2.08,1,2.36,2.36,0,0,1,.79,1.74,3,3,0,0,1-1.21,2.48,5.73,5.73,0,0,1-3.57,1.24,6.06,6.06,0,0,1-3.67-.81,3.28,3.28,0,0,1-1.52-2.71Z"/><path class="cls-2" d="M66.53,77.83a5.13,5.13,0,0,1,1.42,7,5.87,5.87,0,0,1-3.66,2l-2.5.51,1.09,5.37-2.71.55-3-14.77,5.21-1.06A5.87,5.87,0,0,1,66.53,77.83Zm-2.72,6.63a2.56,2.56,0,0,0,1.75-1,2.39,2.39,0,0,0,.29-1.83,2.43,2.43,0,0,0-1-1.58,2.54,2.54,0,0,0-2-.29l-2.5.51,1,4.73Z"/><path class="cls-2" d="M74.34,81.11q.52-2.59,2.52-3a4,4,0,0,1,1,0l.5,2.69a6.09,6.09,0,0,0-1.28.12q-2.69.55-1.93,4.26l1,4.85-2.69.55L71.21,79.45l2.69-.55Z"/><path class="cls-2" d="M89.86,78.81a6.32,6.32,0,0,1,.64,1.69A10.44,10.44,0,0,1,90.7,82l-7.15,1.45a3.92,3.92,0,0,0,1.1,2.05,2.2,2.2,0,0,0,2,.46,1.81,1.81,0,0,0,1.68-1.86l2.71-.55a4.05,4.05,0,0,1-1,2.93,5.12,5.12,0,0,1-3,1.65,4.9,4.9,0,0,1-4-.85,6.17,6.17,0,0,1-2.39-3.95,6.1,6.1,0,0,1,.65-4.59,4.92,4.92,0,0,1,3.35-2.29,4.38,4.38,0,0,1,3.9.89A5.15,5.15,0,0,1,89.86,78.81Zm-4.64-.26a2.26,2.26,0,0,0-1.62,1.1,3.39,3.39,0,0,0-.36,2.05l4.71-1a2.54,2.54,0,0,0-1.63-2.18A2.27,2.27,0,0,0,85.22,78.54Z"/><path class="cls-2" d="M95.81,82.48q.36,1.56,2.62,1.1a2.55,2.55,0,0,0,1.35-.67,1.08,1.08,0,0,0,.38-1,1,1,0,0,0-.5-.7,3.43,3.43,0,0,0-1.17-.28l-2.59-.37q-2.88-.39-3.31-2.5a2.67,2.67,0,0,1,.8-2.52A6.09,6.09,0,0,1,96.61,74a5.19,5.19,0,0,1,3.47.27,3.1,3.1,0,0,1,1.67,2.1l-2.53.51a1.13,1.13,0,0,0-.7-.76,2.51,2.51,0,0,0-1.43,0,2.37,2.37,0,0,0-1.31.63,1,1,0,0,0-.32.91q.16.8,1.58.91l2.82.45a5.31,5.31,0,0,1,2.22.7,2.36,2.36,0,0,1,1,1.6,3,3,0,0,1-.82,2.63A5.73,5.73,0,0,1,99,85.67a6.06,6.06,0,0,1-3.75-.24A3.28,3.28,0,0,1,93.31,83Z"/><path class="cls-2" d="M113.92,73.91a6.32,6.32,0,0,1,.64,1.69,10.44,10.44,0,0,1,.2,1.45l-7.15,1.45a3.92,3.92,0,0,0,1.1,2.05,2.2,2.2,0,0,0,2,.46,1.81,1.81,0,0,0,1.68-1.86l2.71-.55a4.05,4.05,0,0,1-1,2.93,5.12,5.12,0,0,1-3,1.65,4.9,4.9,0,0,1-4-.85,6.17,6.17,0,0,1-2.39-3.95,6.1,6.1,0,0,1,.65-4.59,4.92,4.92,0,0,1,3.35-2.29,4.38,4.38,0,0,1,3.9.89A5.15,5.15,0,0,1,113.92,73.91Zm-4.64-.26a2.26,2.26,0,0,0-1.62,1.1,3.39,3.39,0,0,0-.36,2.05l4.71-1a2.54,2.54,0,0,0-1.63-2.18A2.27,2.27,0,0,0,109.28,73.65Z"/><path class="cls-2" d="M119.83,71.57a4.1,4.1,0,0,1,6.41-2.21A5.78,5.78,0,0,1,128,72.7l1.32,6.46-2.69.55-1.32-6.46a2.66,2.66,0,0,0-1-1.73,2.22,2.22,0,0,0-1.79-.29,2.32,2.32,0,0,0-1.64,1.33,4.82,4.82,0,0,0-.22,3l1,5.12-2.69.55L116.8,70.2l2.34-.48Z"/><path class="cls-2" d="M139.41,76.83a7.12,7.12,0,0,1-2.25,1.07,5.14,5.14,0,0,1-1.56.1,3.49,3.49,0,0,1-1.27-.38,3.33,3.33,0,0,1-1.57-2.36l-1.26-6.19-1.55.31-.37-1.8,1.55-.31-.59-2.91,2.69-.55.59,2.91,3-.61.37,1.8-3,.61,1.24,6.1a1.2,1.2,0,0,0,1.58,1.1,5.59,5.59,0,0,0,1.63-.71Z"/><path class="cls-2" d="M143,72.87q.36,1.56,2.62,1.1a2.55,2.55,0,0,0,1.35-.67,1.08,1.08,0,0,0,.38-1,1,1,0,0,0-.5-.7,3.43,3.43,0,0,0-1.17-.28L143.12,71q-2.88-.39-3.31-2.5a2.67,2.67,0,0,1,.8-2.52,6.09,6.09,0,0,1,3.22-1.54,5.19,5.19,0,0,1,3.47.27,3.1,3.1,0,0,1,1.67,2.1l-2.53.51a1.13,1.13,0,0,0-.7-.76,2.51,2.51,0,0,0-1.43,0,2.37,2.37,0,0,0-1.31.63,1,1,0,0,0-.32.91q.16.8,1.58.91l2.82.45a5.31,5.31,0,0,1,2.22.7,2.36,2.36,0,0,1,1,1.6,3,3,0,0,1-.82,2.63,5.73,5.73,0,0,1-3.34,1.77,6.06,6.06,0,0,1-3.75-.24,3.28,3.28,0,0,1-1.92-2.44Z"/><path class="cls-2" d="M152.26,66.75a1.72,1.72,0,0,1-.78-1.17,1.8,1.8,0,0,1,.26-1.4,1.86,1.86,0,0,1,1.24-.8,1.93,1.93,0,0,1,1.47.25,1.76,1.76,0,0,1,.81,1.19A1.69,1.69,0,0,1,155,66.2a2,2,0,0,1-1.26.78A1.9,1.9,0,0,1,152.26,66.75Zm1.38,6.76a1.72,1.72,0,0,1-.78-1.17,1.8,1.8,0,0,1,.26-1.4,1.86,1.86,0,0,1,1.24-.8,1.94,1.94,0,0,1,1.47.25,1.76,1.76,0,0,1,.81,1.19,1.69,1.69,0,0,1-.29,1.39,2,2,0,0,1-1.26.78A1.9,1.9,0,0,1,153.64,73.51Z"/><path class="cls-1" d="M237.11,117.39a7.3,7.3,0,0,1-7-9.23,107.31,107.31,0,0,1,6.65-17.78c21.51-45,54.52-58.76,78.43-62.35,36-5.41,75.87,9.06,101.48,36.88a7.3,7.3,0,1,1-10.74,9.88c-22.42-24.36-57.18-37.05-88.57-32.33-20.42,3.07-48.69,15-67.44,54.21A92.6,92.6,0,0,0,244.14,112,7.3,7.3,0,0,1,237.11,117.39Z"/><path class="cls-2" d="M203.86,57.67q-.07-2-2.46-2.37a3.12,3.12,0,0,0-1.9.2,1.39,1.39,0,0,0-.83,1,1.34,1.34,0,0,0,.27,1.11,4.12,4.12,0,0,0,1.22.9l3,1.75a6.76,6.76,0,0,1,2.31,2,3.52,3.52,0,0,1,.53,2.58,3.89,3.89,0,0,1-2,3,7,7,0,0,1-4.5.53,6.36,6.36,0,0,1-3.84-1.82,4.78,4.78,0,0,1-1.25-4l2.69.4a2.25,2.25,0,0,0,1.56,2.61,5.86,5.86,0,0,0,1.49.39,3.43,3.43,0,0,0,1.82-.21,1.44,1.44,0,0,0,1-1.14,1.64,1.64,0,0,0-.25-1.28,4.19,4.19,0,0,0-1.3-1l-2.79-1.62a7.85,7.85,0,0,1-2.41-2,3.34,3.34,0,0,1-.55-2.62,3.51,3.51,0,0,1,1.89-2.72,6.47,6.47,0,0,1,4.15-.53,5.9,5.9,0,0,1,3.71,1.74,4.72,4.72,0,0,1,1.08,3.49Z"/><path class="cls-2" d="M218.92,62.66a6.32,6.32,0,0,1,0,1.81,10.44,10.44,0,0,1-.31,1.43l-7.21-1.09a3.92,3.92,0,0,0,.33,2.31,2.2,2.2,0,0,0,1.76,1.13,1.81,1.81,0,0,0,2.22-1.17l2.73.41a4.05,4.05,0,0,1-1.94,2.41,5.12,5.12,0,0,1-3.34.53,4.9,4.9,0,0,1-3.46-2.16,6.17,6.17,0,0,1-.89-4.53A6.1,6.1,0,0,1,211,59.66a4.92,4.92,0,0,1,3.93-1,4.38,4.38,0,0,1,3.36,2.17A5.15,5.15,0,0,1,218.92,62.66Zm-4.27-1.84a2.26,2.26,0,0,0-1.9.48,3.39,3.39,0,0,0-1,1.8l4.75.72a2.54,2.54,0,0,0-.78-2.61A2.27,2.27,0,0,0,214.66,60.82Z"/><path class="cls-2" d="M225.28,62.49a4.1,4.1,0,0,1,6.78.13,5.78,5.78,0,0,1,.51,3.74l-1,6.52-2.71-.41,1-6.52a2.66,2.66,0,0,0-.32-2A2.22,2.22,0,0,0,228,63.1a2.32,2.32,0,0,0-2,.69,4.82,4.82,0,0,0-1.25,2.77l-.78,5.17-2.71-.41,1.68-11.16,2.37.36Z"/><path class="cls-2" d="M241.87,74.15a7.12,7.12,0,0,1-2.48.24,5.14,5.14,0,0,1-1.5-.44,3.49,3.49,0,0,1-1.07-.79,3.33,3.33,0,0,1-.67-2.75l.94-6.25-1.56-.24.27-1.81,1.56.24.44-2.94,2.71.41-.44,2.94,3,.46L242.84,65l-3-.46-.93,6.16a1.2,1.2,0,0,0,1.1,1.58,5.59,5.59,0,0,0,1.78-.11Z"/><path class="cls-2" d="M246.74,60.06a1.56,1.56,0,0,1,.61-1.09,2,2,0,0,1,2.47.37,1.75,1.75,0,0,1-.35,2.32,2,2,0,0,1-2.47-.37A1.56,1.56,0,0,1,246.74,60.06Zm-.22,3.63,2.71.41-1.68,11.19-2.71-.41Z"/><path class="cls-2" d="M263.42,68.42a3.87,3.87,0,0,1,4.15-1.84,3.81,3.81,0,0,1,2.9,1.82,5.55,5.55,0,0,1,.52,3.74l-1,6.52-2.73-.41,1-6.52a2.66,2.66,0,0,0-.32-2,2.22,2.22,0,0,0-1.58-.88,2.13,2.13,0,0,0-1.91.68,5.09,5.09,0,0,0-1.16,2.74l-.79,5.24-2.71-.41,1-6.52a2.66,2.66,0,0,0-.32-2,2.22,2.22,0,0,0-1.58-.88,2.32,2.32,0,0,0-2,.69,4.82,4.82,0,0,0-1.25,2.77l-.78,5.17L252.14,76l1.68-11.16,2.37.36v2a3.73,3.73,0,0,1,3.87-1.7,4.05,4.05,0,0,1,2.23,1A3.91,3.91,0,0,1,263.42,68.42Z"/><path class="cls-2" d="M283.8,72.43a6.32,6.32,0,0,1,0,1.81,10.46,10.46,0,0,1-.31,1.43l-7.21-1.09a3.92,3.92,0,0,0,.33,2.31A2.2,2.2,0,0,0,278.39,78a1.81,1.81,0,0,0,2.22-1.17l2.73.41a4.05,4.05,0,0,1-1.94,2.41,5.12,5.12,0,0,1-3.34.53A4.9,4.9,0,0,1,274.61,78a6.17,6.17,0,0,1-.89-4.53,6.1,6.1,0,0,1,2.19-4.09,4.92,4.92,0,0,1,3.93-1,4.38,4.38,0,0,1,3.36,2.17A5.15,5.15,0,0,1,283.8,72.43Zm-4.27-1.84a2.26,2.26,0,0,0-1.9.48,3.39,3.39,0,0,0-1,1.8l4.75.72a2.54,2.54,0,0,0-.78-2.61A2.27,2.27,0,0,0,279.54,70.59Z"/><path class="cls-2" d="M290.16,72.26a4.1,4.1,0,0,1,6.78.13,5.78,5.78,0,0,1,.51,3.74l-1,6.52-2.71-.41,1-6.52a2.66,2.66,0,0,0-.32-2,2.22,2.22,0,0,0-1.58-.88,2.32,2.32,0,0,0-2,.69,4.82,4.82,0,0,0-1.25,2.77l-.78,5.17-2.71-.41,1.68-11.16,2.37.36Z"/><path class="cls-2" d="M306.75,83.91a7.12,7.12,0,0,1-2.48.24,5.14,5.14,0,0,1-1.5-.44,3.49,3.49,0,0,1-1.07-.79,3.33,3.33,0,0,1-.67-2.75l.94-6.25-1.56-.24.27-1.81,1.56.24.44-2.94,2.71.41L305,72.51l3,.46-.27,1.81-3-.46-.93,6.16a1.2,1.2,0,0,0,1.1,1.58,5.58,5.58,0,0,0,1.78-.11Z"/><path class="cls-2" d="M311.51,81.44q-.19,1.59,2.08,1.93a2.55,2.55,0,0,0,1.49-.16,1.08,1.08,0,0,0,.7-.8,1,1,0,0,0-.23-.83,3.43,3.43,0,0,0-1-.67l-2.3-1.24q-2.57-1.35-2.25-3.49a2.67,2.67,0,0,1,1.62-2.09,6.09,6.09,0,0,1,3.55-.35,5.18,5.18,0,0,1,3.17,1.44,3.1,3.1,0,0,1,.85,2.55l-2.55-.38a1.13,1.13,0,0,0-.4-1,2.51,2.51,0,0,0-1.33-.53,2.37,2.37,0,0,0-1.44.15,1,1,0,0,0-.62.74q-.12.8,1.18,1.4l2.49,1.39A5.31,5.31,0,0,1,318.36,81a2.36,2.36,0,0,1,.44,1.86A3,3,0,0,1,317.13,85a5.73,5.73,0,0,1-3.74.52A6.06,6.06,0,0,1,310,84a3.28,3.28,0,0,1-1-3Z"/></svg>