<svg id="Layer_1" data-name="Layer 1" xmlns="http://www.w3.org/2000/svg" viewBox="0 0 833.17 264.95"><defs><style>.cls-1{fill:#282828;}</style></defs><title>web 02</title><path class="cls-1" d="M676.28,171.33l0-14c-12.61-.8-25.07-1.56-37-2.26l-.48,0,0-12.13q-.07-23-.14-45.91c-6.71.55-10.31.84-17,1.38l.22,68.41C639.2,168.16,657.55,169.7,676.28,171.33Z"/><path class="cls-1" d="M468,158.1l6.09-12.4,34,1s3.49,7.62,6,13.08c7,.33,10.76.52,17.61.89-5.31-9.63-25.27-45.92-30-54.71-8.41.37-12.63.54-20.88.83-5.42,9.38-24.6,42.73-29.42,50.83C458.23,157.81,461,157.9,468,158.1Zm23.17-43.16h.12l12.55,23.72-25.59-.33Z"/><path class="cls-1" d="M134.71,126.05c-5.68-1.15-8.79-1.85-14.71-3.22-8.2-1.91-11.86-5.68-11.87-12.24a7.67,7.67,0,0,1,2.36-5.89c2.4-2.23,6.44-3.15,12-2.73,10.4.78,18.64,5.79,23.27,14.14,4.15-3.88,6.23-5.79,10.61-9.47-6.66-10.28-16.57-15.51-33-17.46C113.83,88,104.72,90.34,99,95.31c-4.5,3.92-6.85,9.21-7,15.75-.28,13.55,6.67,22.61,20.66,26.92a104.5,104.5,0,0,0,15.95,3.5c8.36,1.35,11.62,4.22,11.65,10.22,0,6.64-5.27,10.38-15.76,11.12-11.65.83-20-4-24.91-14.45l-6,5.7-6.54,6.26c2.22,4.88,10.89,18.79,36.55,16,29.58-3.25,33.22-20.17,33.42-27.3C157.41,136.69,150.1,129.18,134.71,126.05Z"/><path class="cls-1" d="M417,83.65A667.37,667.37,0,0,0,678.38,30.87,673,673,0,0,0,741.87,0H92.07a673,673,0,0,0,63.5,30.87A667.37,667.37,0,0,0,417,83.65Z"/><path class="cls-1" d="M688.08,172.37c17.5,1.58,36.55,3.33,58.21,5.34V163.51q-20.38-1.43-40.76-2.82l-.48,0,0-21.51h.52l38.34.78V123.48l-38.36.8H705l0-19.86.48,0,40.15-2.61V87.72l-22.86,2L687.9,92.78q0,19.08.09,38.15Q688,151.65,688.08,172.37Z"/><path class="cls-1" d="M207.49,98.5c-11.83-.93-34.64-2.88-38.5-3.21,0,5.55.28,51,.42,75,6.71-.58,10.31-.89,17-1.45-.06-8.64-.09-13.74-.14-23.25V144l.5,0c2.85-.09,5.2-.21,7.4-.31,4.12-.2,7.69-.37,13-.35h.18c9.14,0,16.77-2.62,21.5-7.38,3.81-3.83,5.7-8.86,5.64-15C234.37,107.07,220.81,99.13,207.49,98.5Zm7.74,29.8c-2.38,2.37-6.35,3.58-11.79,3.58h-.15l-17.06-.07-.14-23.67.55,0,16.55,1c9.81.61,14.79,4.52,14.79,11.63A10.11,10.11,0,0,1,215.23,128.29Z"/><path class="cls-1" d="M417,89.16c127.29,0,250.77-24.93,367-74.1Q801,7.85,817.73,0H743.34a673.61,673.61,0,0,1-64.68,31.52A668.07,668.07,0,0,1,417,84.35,668.07,668.07,0,0,1,155.29,31.52,673.61,673.61,0,0,1,90.61,0H16.21Q32.91,7.84,50,15.07C166.2,64.23,289.68,89.16,417,89.16Z"/><path class="cls-1" d="M572.63,165.39c20.36,0,31.87-6.45,36.16-20.28-2.59-.62-4.6-1.13-6.46-1.6-3.07-.77-5.74-1.45-10-2.37-2.44,8.8-11.73,12.86-19.37,12.22-15.41-1.3-23.56-8.48-23.56-20.76,0-12.46,8.4-20.06,23.06-20.87,10.57-.58,17.5,3.94,19.54,12.74,7-1.26,10.61-2,17.56-3.33C604.91,102.43,585.61,100,576.1,100c-1.27,0-2.37,0-3.23.09C554,101.28,533.75,112,533.75,132.77,533.75,154,553.78,165.39,572.63,165.39Z"/><path class="cls-1" d="M819.33,0q-17.4,8.22-35.08,15.72C667.92,64.92,544.35,89.87,417,89.87S166,64.92,49.69,15.72Q32,8.24,14.61,0H0V265H833.17V0ZM65.66,72.43S223.37,99.88,417.07,99.88,768.48,72.43,768.48,72.43V192.6s-157.82-27.45-351.41-27.45S65.66,192.6,65.66,192.6ZM741.87,265a671.32,671.32,0,0,0-649.81,0H90.61a672.12,672.12,0,0,1,652.73,0Zm75.86,0Q801,257.11,784,249.88c-116.24-49.17-239.72-74.1-367-74.1S166.2,200.72,50,249.88Q32.91,257.1,16.21,265h-1.6q17.4-8.22,35.08-15.72C166,200,289.59,175.09,417,175.09s251,24.95,367.28,74.15q17.68,7.48,35.08,15.72Z"/><path class="cls-1" d="M419.09,157.26c4.43,0,7.55,0,11.91.1l3,0V118.62h.5c9.71-.17,14.58-.28,24.33-.53V107.5c-23.38.5-45.21.63-66.72.38V118.5c9.64.18,14.51.26,24.34.38h.5v38.38Z"/><path class="cls-1" d="M263.13,152.5l-.54,0L262.51,137H263q19.25-.29,38.51-.54l0-8.57q-19.27-.28-38.53-.62h-.5l-.08-14.38.54,0c13.51.69,27,1.33,40.24,1.88l0-10c-18.81-1-38.28-2.21-57.89-3.53l.39,62.92c19.82-1.36,39.47-2.58,58.44-3.64l0-10.05C290.71,151.12,277,151.78,263.13,152.5Z"/><path class="cls-1" d="M371.5,138.79c-2.42,6.35-9.6,10.31-19.3,10.62-7.49.24-13.81-1.74-17.78-5.58a15.12,15.12,0,0,1-4.61-11.1,15.33,15.33,0,0,1,4.56-11.34c3.92-3.81,9.92-5.69,17.37-5.46,10.08.32,17.32,4.42,19.47,11,6.93-.69,10.63-1.05,17.46-1.72h0c-3.83-9.18-15.36-19.1-36.63-20.13-.66,0-1.32,0-2,0-11.2,0-23.26,4.45-30.54,11.38-5,4.75-7.53,10.29-7.53,16.46s2.5,11.76,7.46,16.47c7.58,7.19,20.55,11.61,32.29,11,13.35-.7,30-6.19,37.08-19.43l-4.35-.53Z"/></svg>