<svg id="Layer_1" data-name="Layer 1" xmlns="http://www.w3.org/2000/svg" viewBox="0 0 629.59 390.82"><defs><style>.cls-1{fill:#fde987;}</style></defs><title>pp-line</title><path class="cls-1" d="M509.12,365.73a165,165,0,0,1-75.69-5.64c-25.82-8-48.56-21.85-65.75-39.95A130.43,130.43,0,0,1,351.35,299h-26.3A151.3,151.3,0,0,0,351,336c33,34.76,82.75,54.84,132.48,54.84a179.18,179.18,0,0,0,29.41-2.41,11.5,11.5,0,1,0-3.78-22.69Z"/><path class="cls-1" d="M614.51,10.36V34.58c5.07,1.77,10.1,3.71,15.08,5.88V15.59C624.61,13.65,619.58,11.93,614.51,10.36Z"/></svg>