<svg id="Layer_1" data-name="Layer 1" xmlns="http://www.w3.org/2000/svg" viewBox="0 0 629.59 937.06"><defs><style>.cls-1{fill:#fde987;}.cls-2{fill:#1928de;}</style></defs><title>sentiments-title-2</title><path class="cls-1" d="M489.5,427.19C455.56,415,415.35,415.68,370,429.27c-53,15.88-100.56,18.87-141.37,8.88-34.63-8.48-63.65-26-86.25-52.07a180.48,180.48,0,0,1-35.51-64.88h-24c8,29.59,22.62,57.49,42.09,79.95,25.79,29.74,58.81,49.71,98.17,59.34,44.84,11,96.47,7.89,153.44-9.18,40.56-12.15,75.94-13,105.14-2.48a98.06,98.06,0,0,1,56.38,51c11.12,23.28,14.25,51.73,9.32,80.77H570.7c4.79-32.38.8-64.2-11.84-90.68A120.62,120.62,0,0,0,489.5,427.19Z"/><path class="cls-2" d="M40.12,377.16l6.64,14.36,2.15-14.36,2.44-.37,6.57,13.1,2.34-15.79,4.05-.62L60.52,394.3l-3.78.57-5.41-10.59-2,11.72-3.78.57-9.46-18.8Z"/><path class="cls-2" d="M79.35,380.41a8.38,8.38,0,0,1,.74,2.29,13.84,13.84,0,0,1,.17,1.94l-9.57,1.45A5.21,5.21,0,0,0,72,388.88a2.92,2.92,0,0,0,2.67.75A2.41,2.41,0,0,0,77,387.27l3.63-.55a5.38,5.38,0,0,1-1.51,3.81,6.8,6.8,0,0,1-4,2,6.5,6.5,0,0,1-5.23-1.39A8.19,8.19,0,0,1,67,385.74a8.1,8.1,0,0,1,1.17-6,6.53,6.53,0,0,1,4.59-2.82,5.81,5.81,0,0,1,5.11,1.44A6.84,6.84,0,0,1,79.35,380.41Zm-6.13-.66A3,3,0,0,0,71,381.1a4.5,4.5,0,0,0-.62,2.7l6.31-1q-.37-2.41-2-3A3,3,0,0,0,73.22,379.75Z"/><path class="cls-2" d="M239.84,493.4l1.5,11,4.22-9.37,3.27.46,1.46,10.2,4.52-10.2,3.6.51-7,14.15-3.54-.5-1.49-9.27-3.94,8.5-3.57-.5-2.82-15.53Z"/><path class="cls-2" d="M267.55,496.91a8.31,8.31,0,0,1,2.74.87,5.94,5.94,0,0,1,2.05,1.77,8.15,8.15,0,0,1,1.27,6.22,8.06,8.06,0,0,1-2.93,5.56,6.8,6.8,0,0,1-5.34,1.24,7,7,0,0,1-4.85-2.68,8,8,0,0,1-1.28-6.16,8.09,8.09,0,0,1,2.94-5.62A7,7,0,0,1,267.55,496.91Zm2.47,8.32a5.73,5.73,0,0,0-.42-3.65,3.08,3.08,0,0,0-2.38-1.54,3.43,3.43,0,0,0-2.84.8,5.24,5.24,0,0,0-1.54,3.38,5.66,5.66,0,0,0,.43,3.66,3.11,3.11,0,0,0,2.38,1.54,3.42,3.42,0,0,0,2.82-.8A5.24,5.24,0,0,0,270,505.23Z"/><path class="cls-2" d="M282.13,502.37q1.8-3,4.48-2.64a5.33,5.33,0,0,1,1.28.4l-.57,3.59a8,8,0,0,0-1.65-.42q-3.6-.51-4.3,4.47l-.92,6.5-3.6-.51,2.1-14.87,3.6.51Z"/><path class="cls-2" d="M295.82,509.06,294,510.2l-.83,5.86-3.6-.51,3-20.94,3.6.51-1.6,11.33,6.6-4.39,4.88.69-7.34,4.57,5.61,10.32-4.4-.62Z"/><path class="cls-2" d="M309.75,498.39a2.07,2.07,0,0,1,.8-1.46,2.69,2.69,0,0,1,3.28.46,2.31,2.31,0,0,1-.44,3.08,2.69,2.69,0,0,1-3.28-.46A2.07,2.07,0,0,1,309.75,498.39Zm-.25,4.82,3.6.51L311,518.59l-3.6-.51Z"/><path class="cls-2" d="M322.38,507.68a5.45,5.45,0,0,1,9,.09,7.66,7.66,0,0,1,.72,5l-1.22,8.67-3.6-.51,1.22-8.67a3.53,3.53,0,0,0-.44-2.6,3,3,0,0,0-2.11-1.16,3.09,3.09,0,0,0-2.64.94,6.4,6.4,0,0,0-1.63,3.69l-1,6.87-3.6-.51,2.1-14.84,3.14.44Z"/><path class="cls-2" d="M338.27,516.24a4.85,4.85,0,0,1-1.26-4.07,4.79,4.79,0,0,1,2.45-3.64,6.68,6.68,0,0,1,4.4-.84,8.11,8.11,0,0,1,3.83,1.44,4.06,4.06,0,0,1,1.89-2.6,4.62,4.62,0,0,1,3.17-.64l-.67,3.42q-2.63-.37-3,1.36a4.6,4.6,0,0,1,.72,3,5.31,5.31,0,0,1-.87,2.38,5,5,0,0,1-1.64,1.46,7,7,0,0,1-4.66.84,7.76,7.76,0,0,1-2.65-.84,1.48,1.48,0,0,0-1.43,1.29q-.19,1.37,2.13,1.7l5,.7q5.07.72,4.57,4.26a5.05,5.05,0,0,1-.93,2.25,6.31,6.31,0,0,1-2,1.79,10,10,0,0,1-6.57,1.07,10.82,10.82,0,0,1-5.74-2.34,4.21,4.21,0,0,1-1.64-3.81,2.92,2.92,0,0,1,1.15-2.06,4,4,0,0,1,2.36-.71,3.21,3.21,0,0,1-1.42-3,2.54,2.54,0,0,1,.92-1.69A3.77,3.77,0,0,1,338.27,516.24Zm1.84,6.8q-2.89-.28-3.18,1.76a1.89,1.89,0,0,0,1,1.83,6.18,6.18,0,0,0,2.77,1,9.59,9.59,0,0,0,2.62.09,5.29,5.29,0,0,0,1.68-.51,2.65,2.65,0,0,0,1.68-2,1.18,1.18,0,0,0-.25-1,1.61,1.61,0,0,0-1.06-.51Zm6.12-9.61a3,3,0,0,0-.4-2.11,2.67,2.67,0,0,0-2-1.07,2.64,2.64,0,0,0-3.26,2.39,2.9,2.9,0,0,0,.45,2.13,2.79,2.79,0,0,0,2,1.1,2.65,2.65,0,0,0,2.2-.5A3,3,0,0,0,346.23,513.43Z"/><path class="cls-2" d="M370,526.55a9.46,9.46,0,0,1-3.29.35,6.84,6.84,0,0,1-2-.56,4.63,4.63,0,0,1-1.42-1,4.43,4.43,0,0,1-.92-3.65l1.17-8.3-2.08-.29.34-2.41,2.08.29.55-3.91,3.6.51-.55,3.91,4,.57-.34,2.41-4-.57L366,522a1.6,1.6,0,0,0,1.48,2.08,7.4,7.4,0,0,0,2.36-.17Z"/><path class="cls-2" d="M381.66,513a8.31,8.31,0,0,1,2.74.87,5.94,5.94,0,0,1,2.05,1.77,8.15,8.15,0,0,1,1.27,6.22,8.06,8.06,0,0,1-2.93,5.56,6.8,6.8,0,0,1-5.34,1.24,7,7,0,0,1-4.85-2.68,8,8,0,0,1-1.28-6.16,8.09,8.09,0,0,1,2.94-5.62A7,7,0,0,1,381.66,513Zm2.47,8.32a5.73,5.73,0,0,0-.42-3.65,3.08,3.08,0,0,0-2.38-1.54,3.43,3.43,0,0,0-2.84.8,5.24,5.24,0,0,0-1.54,3.38,5.66,5.66,0,0,0,.43,3.66,3.11,3.11,0,0,0,2.38,1.54,3.42,3.42,0,0,0,2.82-.8A5.24,5.24,0,0,0,384.12,521.35Z"/><path class="cls-2" d="M413.56,520.8a5.14,5.14,0,0,1,5.49-2.49,5.06,5.06,0,0,1,3.87,2.38,7.37,7.37,0,0,1,.73,5l-1.22,8.67-3.63-.51,1.22-8.67a3.53,3.53,0,0,0-.44-2.6,3,3,0,0,0-2.11-1.16,2.82,2.82,0,0,0-2.53.92,6.76,6.76,0,0,0-1.51,3.65l-1,7-3.6-.51,1.22-8.67a3.53,3.53,0,0,0-.44-2.6,3,3,0,0,0-2.11-1.16,3.09,3.09,0,0,0-2.64.94,6.4,6.4,0,0,0-1.63,3.69l-1,6.87-3.6-.51,2.1-14.84,3.14.44,0,2.62a5,5,0,0,1,5.12-2.3,5.38,5.38,0,0,1,3,1.29A5.19,5.19,0,0,1,413.56,520.8Z"/><path class="cls-2" d="M433.75,527.08a17.35,17.35,0,0,1,4,1.16l.21-1.46a3.58,3.58,0,0,0-.3-2.39,2.55,2.55,0,0,0-1.94-1,3.66,3.66,0,0,0-2.26.26,1.9,1.9,0,0,0-1,1.49l-3.94-.56a4,4,0,0,1,2.3-3.41,9.42,9.42,0,0,1,5.15-.42q4.58.65,5.47,4a6.78,6.78,0,0,1,.09,2.66l-1.33,9.43-3.14-.44v-2a4.82,4.82,0,0,1-4.74,1.79,6.57,6.57,0,0,1-4.26-2,4.46,4.46,0,0,1-1-3.61,3.66,3.66,0,0,1,2.07-2.95A7.78,7.78,0,0,1,433.75,527.08Zm3.68,3.45a13,13,0,0,0-3.29-1q-2.93-.41-3.21,1.54a1.85,1.85,0,0,0,.47,1.51,3.22,3.22,0,0,0,2.07.9,3.29,3.29,0,0,0,2.58-.65A3.69,3.69,0,0,0,437.44,530.53Z"/><path class="cls-2" d="M448.12,517.93a2.07,2.07,0,0,1,.8-1.46,2.69,2.69,0,0,1,3.28.46,2.31,2.31,0,0,1-.44,3.08,2.69,2.69,0,0,1-3.28-.46A2.07,2.07,0,0,1,448.12,517.93Zm-.25,4.82,3.6.51-2.1,14.87-3.6-.51Z"/><path class="cls-2" d="M460.76,527.22a5.45,5.45,0,0,1,9,.09,7.66,7.66,0,0,1,.72,5l-1.22,8.67-3.6-.51,1.22-8.67a3.53,3.53,0,0,0-.44-2.6,3,3,0,0,0-2.11-1.16,3.09,3.09,0,0,0-2.64.94,6.4,6.4,0,0,0-1.63,3.69l-1,6.87-3.6-.51,2.1-14.84,3.14.44Z"/><path class="cls-2" d="M482.92,542.49a9.46,9.46,0,0,1-3.29.35,6.84,6.84,0,0,1-2-.56,4.63,4.63,0,0,1-1.42-1,4.43,4.43,0,0,1-.92-3.65l1.17-8.3L474.4,529l.34-2.41,2.08.29.55-3.91,3.6.51-.55,3.91,4,.57-.34,2.41-4-.57L478.92,538a1.6,1.6,0,0,0,1.48,2.08,7.4,7.4,0,0,0,2.36-.17Z"/><path class="cls-2" d="M492.67,535.4a17.35,17.35,0,0,1,4,1.16l.21-1.46a3.58,3.58,0,0,0-.3-2.39,2.55,2.55,0,0,0-1.94-1,3.66,3.66,0,0,0-2.26.26,1.9,1.9,0,0,0-1,1.49l-3.94-.56a4,4,0,0,1,2.3-3.41,9.42,9.42,0,0,1,5.15-.42q4.58.65,5.47,4a6.78,6.78,0,0,1,.09,2.66l-1.33,9.43-3.14-.44v-2a4.82,4.82,0,0,1-4.74,1.79,6.57,6.57,0,0,1-4.26-2,4.46,4.46,0,0,1-1-3.61,3.66,3.66,0,0,1,2.07-2.95A7.78,7.78,0,0,1,492.67,535.4Zm3.68,3.45a13,13,0,0,0-3.29-1q-2.93-.41-3.21,1.54a1.85,1.85,0,0,0,.47,1.51,3.22,3.22,0,0,0,2.07.9,3.29,3.29,0,0,0,2.58-.65A3.69,3.69,0,0,0,496.36,538.85Z"/><path class="cls-2" d="M507,526.25a2.07,2.07,0,0,1,.8-1.46,2.69,2.69,0,0,1,3.28.46,2.31,2.31,0,0,1-.44,3.08,2.69,2.69,0,0,1-3.28-.46A2.07,2.07,0,0,1,507,526.25Zm-.25,4.82,3.6.51-2.1,14.87-3.6-.51Z"/><path class="cls-2" d="M519.68,535.54a5.45,5.45,0,0,1,9,.09,7.66,7.66,0,0,1,.72,5l-1.22,8.67-3.6-.51,1.22-8.67a3.53,3.53,0,0,0-.44-2.6,3,3,0,0,0-2.11-1.16,3.09,3.09,0,0,0-2.64.94A6.4,6.4,0,0,0,519,541l-1,6.87-3.6-.51,2.1-14.84,3.14.44Z"/><path class="cls-2" d="M96.71,373.25a6.46,6.46,0,0,1,2.59.09,5.93,5.93,0,0,1,2.06,1,6,6,0,0,1,2.36,3.42l-3.61.64A3.38,3.38,0,0,0,99,376.87a2.12,2.12,0,0,0-1.61-.41,3.77,3.77,0,0,0-1.42.48,2.85,2.85,0,0,0-.94,1,5.53,5.53,0,0,0-.5,3.69A5.17,5.17,0,0,0,96,384.85a3,3,0,0,0,2.54.78,2.71,2.71,0,0,0,1.91-1,2.51,2.51,0,0,0,.35-1.88l3.63-.55a5.56,5.56,0,0,1-1,4.3,6.29,6.29,0,0,1-4.35,2.34,6.5,6.5,0,0,1-5.23-1.39,8.19,8.19,0,0,1-3-5.38A8,8,0,0,1,92.09,376,6.67,6.67,0,0,1,96.71,373.25Z"/><path class="cls-2" d="M113.1,377.47a17.35,17.35,0,0,1,4.17,0L117,376a3.58,3.58,0,0,0-1-2.21,2.55,2.55,0,0,0-2.16-.44,3.66,3.66,0,0,0-2.09.89,1.9,1.9,0,0,0-.52,1.72l-3.93.6a4,4,0,0,1,1.23-3.93,9.42,9.42,0,0,1,4.81-1.88q4.57-.69,6.4,2.3a6.78,6.78,0,0,1,.85,2.52L122.1,385l-3.14.48-.57-1.94a4.82,4.82,0,0,1-4,3.07,6.57,6.57,0,0,1-4.66-.73,4.46,4.46,0,0,1-2-3.18,3.66,3.66,0,0,1,1.14-3.42A7.78,7.78,0,0,1,113.1,377.47Zm4.52,2.25a13,13,0,0,0-3.43,0q-2.93.44-2.63,2.39a1.85,1.85,0,0,0,.89,1.32,3.22,3.22,0,0,0,2.24.27,3.29,3.29,0,0,0,2.29-1.36A3.69,3.69,0,0,0,117.62,379.71Z"/><path class="cls-2" d="M129,371.37a5.45,5.45,0,0,1,8.65-2.5,7.66,7.66,0,0,1,2.11,4.54l1.31,8.66-3.6.55L136.17,374A3.53,3.53,0,0,0,135,371.6a3,3,0,0,0-2.35-.5,3.09,3.09,0,0,0-2.26,1.65,6.41,6.41,0,0,0-.5,4l1,6.86-3.6.55-2.25-14.81,3.14-.48Z"/><path class="cls-2" d="M155.39,366.81a4.67,4.67,0,0,1,3.9-3.06,6.29,6.29,0,0,1,5,1.36,9,9,0,0,1,1.71,11.5,6.25,6.25,0,0,1-4.35,2.78,4.75,4.75,0,0,1-4.21-1l1.28,8.41-3.6.55-3.35-22,3-.45Zm5.14,9.42a3.6,3.6,0,0,0,1.28-.48,3.5,3.5,0,0,0,1.1-1,4.82,4.82,0,0,0,.7-3.61,5,5,0,0,0-1.56-3.21,3.3,3.3,0,0,0-2.75-.83A3.58,3.58,0,0,0,157,368.3a3.4,3.4,0,0,0-.64,2.64l.4,2.65a3,3,0,0,0,1.36,2.16A3.44,3.44,0,0,0,160.53,376.22Z"/><path class="cls-2" d="M174.42,364.85q.86-3.4,3.54-3.81a5.33,5.33,0,0,1,1.34,0l.49,3.61a8,8,0,0,0-1.7.07q-3.6.55-2.84,5.51l1,6.49-3.6.55-2.25-14.84,3.6-.55Z"/><path class="cls-2" d="M188.82,359.27a8.31,8.31,0,0,1,2.88,0,5.94,5.94,0,0,1,2.48,1.11,8.15,8.15,0,0,1,3,5.59,8.06,8.06,0,0,1-1.22,6.17,6.8,6.8,0,0,1-4.76,2.72,7,7,0,0,1-5.42-1.17,8,8,0,0,1-3-5.53A8.09,8.09,0,0,1,184,362,7,7,0,0,1,188.82,359.27Zm4.75,7.26a5.73,5.73,0,0,0-1.45-3.38,3.08,3.08,0,0,0-2.72-.79,3.43,3.43,0,0,0-2.49,1.58,5.24,5.24,0,0,0-.5,3.68,5.66,5.66,0,0,0,1.46,3.38,3.11,3.11,0,0,0,2.72.79,3.42,3.42,0,0,0,2.47-1.58A5.24,5.24,0,0,0,193.57,366.53Z"/><path class="cls-2" d="M210.86,371.11a9.46,9.46,0,0,1-3,1.27,6.84,6.84,0,0,1-2.07,0,4.63,4.63,0,0,1-1.66-.59,4.43,4.43,0,0,1-1.92-3.23l-1.26-8.29-2.07.31-.37-2.41,2.07-.31-.59-3.9,3.6-.55.59,3.9,4-.61.37,2.41-4,.61,1.24,8.17a1.6,1.6,0,0,0,2,1.56,7.4,7.4,0,0,0,2.21-.83Z"/><path class="cls-2" d="M224.44,358.38a8.38,8.38,0,0,1,.74,2.29,13.84,13.84,0,0,1,.17,1.94l-9.57,1.45a5.21,5.21,0,0,0,1.33,2.79,2.92,2.92,0,0,0,2.67.75,2.41,2.41,0,0,0,2.36-2.35l3.63-.55a5.38,5.38,0,0,1-1.51,3.81,6.8,6.8,0,0,1-4,2,6.5,6.5,0,0,1-5.23-1.39,8.19,8.19,0,0,1-2.91-5.39,8.1,8.1,0,0,1,1.17-6,6.53,6.53,0,0,1,4.59-2.82A5.81,5.81,0,0,1,223,356.3,6.84,6.84,0,0,1,224.44,358.38Zm-6.13-.66a3,3,0,0,0-2.23,1.35,4.5,4.5,0,0,0-.62,2.7l6.31-1q-.37-2.41-2-3A3,3,0,0,0,218.3,357.72Z"/><path class="cls-2" d="M234.09,352.4a6.46,6.46,0,0,1,2.59.09,5.93,5.93,0,0,1,2.06,1,6,6,0,0,1,2.36,3.42l-3.61.64a3.38,3.38,0,0,0-1.14-1.48,2.12,2.12,0,0,0-1.61-.41,3.77,3.77,0,0,0-1.42.48,2.85,2.85,0,0,0-.94,1,5.53,5.53,0,0,0-.5,3.69,5.17,5.17,0,0,0,1.49,3.25,3,3,0,0,0,2.54.78,2.71,2.71,0,0,0,1.91-1,2.51,2.51,0,0,0,.35-1.88l3.63-.55a5.56,5.56,0,0,1-1,4.3,6.29,6.29,0,0,1-4.35,2.34,6.5,6.5,0,0,1-5.23-1.39,8.19,8.19,0,0,1-3-5.38,8,8,0,0,1,1.23-6.08A6.67,6.67,0,0,1,234.09,352.4Z"/><path class="cls-2" d="M255.21,364.38a9.46,9.46,0,0,1-3,1.27,6.84,6.84,0,0,1-2.07,0,4.63,4.63,0,0,1-1.66-.59,4.43,4.43,0,0,1-1.92-3.23l-1.26-8.29-2.07.31-.37-2.41,2.07-.31-.59-3.9,3.6-.55.59,3.9,4-.61.37,2.41-4,.61,1.24,8.17a1.6,1.6,0,0,0,2,1.56,7.4,7.4,0,0,0,2.21-.83Z"/><path class="cls-2" d="M192.62,397.17q.06,2.13,3.11,2.13a3.37,3.37,0,0,0,1.93-.51,1.44,1.44,0,0,0,.76-1.19,1.26,1.26,0,0,0-.46-1,4.55,4.55,0,0,0-1.45-.68l-3.27-1.17q-3.64-1.26-3.64-4.13a3.54,3.54,0,0,1,1.71-3.07,8.09,8.09,0,0,1,4.59-1.16,6.89,6.89,0,0,1,4.44,1.26,4.11,4.11,0,0,1,1.62,3.18h-3.42a1.5,1.5,0,0,0-.71-1.17,3.33,3.33,0,0,0-1.85-.43,3.15,3.15,0,0,0-1.87.48,1.35,1.35,0,0,0-.66,1.09q0,1.08,1.82,1.6l3.54,1.33a7,7,0,0,1,2.7,1.5,3.14,3.14,0,0,1,.94,2.36,4,4,0,0,1-1.76,3.21,7.61,7.61,0,0,1-4.81,1.42,8.06,8.06,0,0,1-4.81-1.31,4.35,4.35,0,0,1-1.85-3.68Z"/><path class="cls-2" d="M211.77,393a17.35,17.35,0,0,1,4.13.59v-1.48a3.58,3.58,0,0,0-.63-2.33,2.55,2.55,0,0,0-2.07-.75,3.66,3.66,0,0,0-2.2.57,1.9,1.9,0,0,0-.77,1.62h-4a4,4,0,0,1,1.8-3.7,9.42,9.42,0,0,1,5-1.14q4.62,0,6,3.24a6.78,6.78,0,0,1,.46,2.62v9.53h-3.18l-.28-2a4.82,4.82,0,0,1-4.44,2.44,6.57,6.57,0,0,1-4.5-1.42,4.46,4.46,0,0,1-1.48-3.44,3.66,3.66,0,0,1,1.63-3.21A7.78,7.78,0,0,1,211.77,393Zm4.13,2.9a13,13,0,0,0-3.39-.49q-3,0-3,2a1.85,1.85,0,0,0,.68,1.43,3.22,3.22,0,0,0,2.17.6,3.29,3.29,0,0,0,2.47-1A3.69,3.69,0,0,0,215.9,395.88Z"/><path class="cls-2" d="M228.42,389.34a5.45,5.45,0,0,1,8.92-1.17,7.66,7.66,0,0,1,1.4,4.81v8.76h-3.64V393a3.53,3.53,0,0,0-.8-2.51,3,3,0,0,0-2.25-.85,3.09,3.09,0,0,0-2.48,1.29,6.41,6.41,0,0,0-1.09,3.88v6.94h-3.64v-15H228Z"/><path class="cls-2" d="M249.75,386.35a6.46,6.46,0,0,1,2.54.48,5.93,5.93,0,0,1,1.9,1.25,6,6,0,0,1,1.82,3.73l-3.67.09a3.38,3.38,0,0,0-.91-1.63,2.12,2.12,0,0,0-1.53-.65,3.77,3.77,0,0,0-1.48.26,2.85,2.85,0,0,0-1.08.82,5.53,5.53,0,0,0-1,3.58,5.17,5.17,0,0,0,1,3.44,3,3,0,0,0,2.39,1.16,2.71,2.71,0,0,0,2-.66,2.51,2.51,0,0,0,.63-1.8H256a5.56,5.56,0,0,1-1.63,4.1,6.29,6.29,0,0,1-4.66,1.67,6.5,6.5,0,0,1-5-2.16,8.19,8.19,0,0,1-2.13-5.76,8,8,0,0,1,2.13-5.83A6.67,6.67,0,0,1,249.75,386.35Z"/><path class="cls-2" d="M268.83,401.36a9.46,9.46,0,0,1-3.21.8,6.84,6.84,0,0,1-2.05-.28,4.63,4.63,0,0,1-1.56-.83,4.43,4.43,0,0,1-1.42-3.48v-8.39h-2.1v-2.44h2.1V382.8h3.64v3.95h4.07v2.44h-4.07v8.26q0,1.85,1.76,1.85a7.4,7.4,0,0,0,2.31-.49Z"/><path class="cls-2" d="M282.52,399a4.75,4.75,0,0,1-4.56,3q-4,0-5.24-3.11a6.64,6.64,0,0,1-.46-2.62v-9.56h3.64v9.19a3,3,0,0,0,.71,2.2,2.34,2.34,0,0,0,1.74.72,4.57,4.57,0,0,0,1.74-.29,3.36,3.36,0,0,0,1.23-.88,5.5,5.5,0,0,0,1.2-3.54v-7.4h3.64v15h-3.64Z"/><path class="cls-2" d="M296.83,393a17.35,17.35,0,0,1,4.13.59v-1.48a3.58,3.58,0,0,0-.63-2.33,2.55,2.55,0,0,0-2.07-.75,3.66,3.66,0,0,0-2.2.57,1.9,1.9,0,0,0-.77,1.62h-4a4,4,0,0,1,1.8-3.7,9.42,9.42,0,0,1,5-1.14q4.62,0,6,3.24a6.78,6.78,0,0,1,.46,2.62v9.53h-3.18l-.28-2a4.82,4.82,0,0,1-4.44,2.44,6.57,6.57,0,0,1-4.5-1.42,4.46,4.46,0,0,1-1.48-3.44,3.66,3.66,0,0,1,1.63-3.21A7.78,7.78,0,0,1,296.83,393Zm4.13,2.9a13,13,0,0,0-3.39-.49q-3,0-3,2a1.85,1.85,0,0,0,.68,1.43,3.22,3.22,0,0,0,2.17.6,3.29,3.29,0,0,0,2.47-1A3.69,3.69,0,0,0,301,395.88Z"/><path class="cls-2" d="M313.54,389.71q1.36-3.24,4.07-3.24a5.33,5.33,0,0,1,1.33.22l-.06,3.64a8,8,0,0,0-1.7-.19q-3.64,0-3.64,5v6.57H309.9v-15h3.64Z"/><path class="cls-2" d="M324.57,386.75l3.61,10.79,3.14-10.79H335l-5.73,17.7a9.07,9.07,0,0,1-2.17,3.85,4.63,4.63,0,0,1-3.25,1.17,9,9,0,0,1-4-1v-3.21a6,6,0,0,0,3.24,1,2.18,2.18,0,0,0,1.77-.86,6.77,6.77,0,0,0,1.13-2.25l.46-1.45-6-15Z"/><path class="cls-2" d="M358.65,388.51a8.28,8.28,0,0,1,1.9,5.67,8.47,8.47,0,0,1-2,5.8,6.21,6.21,0,0,1-4.84,2.19,4.63,4.63,0,0,1-2.54-.74,5,5,0,0,1-1.83-2.28l-.89,2.59h-2.37V380.59h3.64v8a4.67,4.67,0,0,1,4.24-2.28A6,6,0,0,1,358.65,388.51Zm-9,4.81v2a3.61,3.61,0,0,0,1.14,2.59,3.43,3.43,0,0,0,2.48,1,3.15,3.15,0,0,0,2.51-1.28,5.16,5.16,0,0,0,1-3.38,5.08,5.08,0,0,0-1-3.34,3.21,3.21,0,0,0-2.57-1.25,3.47,3.47,0,0,0-2.56,1A3.63,3.63,0,0,0,349.7,393.32Z"/><path class="cls-2" d="M366.84,386.75l3.61,10.79,3.14-10.79h3.7l-5.73,17.7a9.07,9.07,0,0,1-2.17,3.85,4.63,4.63,0,0,1-3.25,1.17,9,9,0,0,1-4-1v-3.21a6,6,0,0,0,3.24,1,2.18,2.18,0,0,0,1.77-.86,6.77,6.77,0,0,0,1.13-2.25l.46-1.45-6-15Z"/><path class="cls-2" d="M393.26,393a17.35,17.35,0,0,1,4.13.59v-1.48a3.58,3.58,0,0,0-.63-2.33,2.55,2.55,0,0,0-2.07-.75,3.66,3.66,0,0,0-2.2.57,1.9,1.9,0,0,0-.77,1.62h-4a4,4,0,0,1,1.8-3.7,9.42,9.42,0,0,1,5-1.14q4.62,0,6,3.24a6.78,6.78,0,0,1,.46,2.62v9.53h-3.18l-.28-2a4.82,4.82,0,0,1-4.44,2.44,6.57,6.57,0,0,1-4.5-1.42,4.46,4.46,0,0,1-1.48-3.44,3.66,3.66,0,0,1,1.63-3.21A7.78,7.78,0,0,1,393.26,393Zm4.13,2.9a13,13,0,0,0-3.39-.49q-3,0-3,2a1.85,1.85,0,0,0,.68,1.43,3.22,3.22,0,0,0,2.17.6,3.29,3.29,0,0,0,2.47-1A3.69,3.69,0,0,0,397.39,395.88Z"/><path class="cls-2" d="M412,386.35a6.46,6.46,0,0,1,2.54.48,5.93,5.93,0,0,1,1.9,1.25,6,6,0,0,1,1.82,3.73l-3.67.09a3.38,3.38,0,0,0-.91-1.63,2.12,2.12,0,0,0-1.53-.65,3.77,3.77,0,0,0-1.48.26,2.85,2.85,0,0,0-1.08.82,5.53,5.53,0,0,0-1,3.58,5.17,5.17,0,0,0,1,3.44,3,3,0,0,0,2.39,1.16,2.71,2.71,0,0,0,2-.66,2.51,2.51,0,0,0,.63-1.8h3.67a5.56,5.56,0,0,1-1.63,4.1,6.29,6.29,0,0,1-4.66,1.67,6.5,6.5,0,0,1-5-2.16,8.19,8.19,0,0,1-2.13-5.76,8,8,0,0,1,2.13-5.83A6.67,6.67,0,0,1,412,386.35Z"/><path class="cls-2" d="M431.12,401.36a9.46,9.46,0,0,1-3.21.8,6.84,6.84,0,0,1-2.05-.28,4.63,4.63,0,0,1-1.56-.83,4.43,4.43,0,0,1-1.42-3.48v-8.39h-2.1v-2.44h2.1V382.8h3.64v3.95h4.07v2.44h-4.07v8.26q0,1.85,1.76,1.85a7.4,7.4,0,0,0,2.31-.49Z"/><path class="cls-2" d="M434.73,381.91a2.07,2.07,0,0,1,.59-1.56,2.69,2.69,0,0,1,3.31,0,2.31,2.31,0,0,1,0,3.11,2.69,2.69,0,0,1-3.31,0A2.07,2.07,0,0,1,434.73,381.91Zm.43,4.81h3.64v15h-3.64Z"/><path class="cls-2" d="M446.66,386.75l3.42,11.38,3.45-11.38h4.19l-5.58,15H448l-5.58-15Z"/><path class="cls-2" d="M472.57,390.82a8.38,8.38,0,0,1,.39,2.37,13.84,13.84,0,0,1-.12,1.94h-9.68a5.21,5.21,0,0,0,.89,3,2.92,2.92,0,0,0,2.53,1.14,2.41,2.41,0,0,0,2.68-2h3.67a5.38,5.38,0,0,1-2.07,3.54,6.8,6.8,0,0,1-4.29,1.36,6.5,6.5,0,0,1-5-2.16,8.19,8.19,0,0,1-2.07-5.76,8.1,8.1,0,0,1,2.07-5.8,6.53,6.53,0,0,1,5-2.1,5.81,5.81,0,0,1,4.84,2.19A6.84,6.84,0,0,1,472.57,390.82Zm-6-1.57a3,3,0,0,0-2.4,1,4.5,4.5,0,0,0-1,2.57h6.38q0-2.44-1.54-3.27A3,3,0,0,0,466.6,389.25Z"/><path class="cls-2" d="M477.3,380.59h3.64v21.15H477.3Z"/><path class="cls-2" d="M488.52,386.75l3.61,10.79,3.14-10.79H499l-5.73,17.7a9.07,9.07,0,0,1-2.17,3.85,4.63,4.63,0,0,1-3.25,1.17,9,9,0,0,1-4-1v-3.21a6,6,0,0,0,3.24,1,2.18,2.18,0,0,0,1.77-.86,6.77,6.77,0,0,0,1.13-2.25l.46-1.45-6-15Z"/><path class="cls-1" d="M15.47,6.23A117.66,117.66,0,0,0,0,0V24.39a107.23,107.23,0,0,1,15.47,8Z"/><path class="cls-1" d="M15.47,846.36A296.29,296.29,0,0,0,0,875v62.07c4.52-13,9.59-26.77,15.47-40.37Z"/><path class="cls-2" d="M543.79,531.54a2.07,2.07,0,0,1,.8-1.46,2.69,2.69,0,0,1,3.28.46,2.31,2.31,0,0,1-.44,3.08,2.69,2.69,0,0,1-3.28-.46A2.07,2.07,0,0,1,543.79,531.54Zm-.25,4.82,3.6.51L545,551.74l-3.6-.51Z"/><path class="cls-2" d="M559.57,553.42a9.46,9.46,0,0,1-3.29.35,6.84,6.84,0,0,1-2-.56,4.63,4.63,0,0,1-1.42-1,4.43,4.43,0,0,1-.92-3.65l1.17-8.3-2.08-.29.34-2.41,2.08.29.55-3.91,3.6.51-.55,3.91,4,.57-.34,2.41-4-.57-1.16,8.18a1.6,1.6,0,0,0,1.48,2.08,7.4,7.4,0,0,0,2.36-.17Z"/><path class="cls-2" d="M561.86,553.71a2.28,2.28,0,0,1-.46-1.81,2.39,2.39,0,0,1,.95-1.64,2.47,2.47,0,0,1,1.9-.45,2.57,2.57,0,0,1,1.73,1,2.34,2.34,0,0,1,.49,1.84,2.24,2.24,0,0,1-1,1.61,2.64,2.64,0,0,1-1.93.41A2.53,2.53,0,0,1,561.86,553.71Z"/></svg>