<svg id="Layer_1" data-name="Layer 1" xmlns="http://www.w3.org/2000/svg" viewBox="0 0 629.59 514.25"><defs><style>.cls-1{fill:#fde987;}.cls-2{fill:#1928de;}</style></defs><title>sentiments-title</title><path class="cls-1" d="M428.54,1.42A11.5,11.5,0,0,0,412.92,6C370.84,82.64,308.46,138.41,272.46,148c-11.7,3.13-21.29,2.28-29.32-2.6-11-6.66-10.74-15.47-7.5-35.48,1.65-10.21,3.36-20.77,1.21-31-2.7-12.89-11-22.41-24.65-28.3-26.75-11.54-58.93,1.88-95.64,39.9-24,24.88-50.67,60.84-79.19,106.87C21,223.86,8.87,253.84,0,282V391.62a11.52,11.52,0,0,0,.49-2.32c.11-1.06,11.29-106.91,56.45-179.79,27.66-44.64,53.29-79.3,76.19-103,36.59-37.9,58.25-39.82,70-34.76,13.23,5.71,13.23,13.56,9.84,34.54-3,18.33-7,43.44,18.26,58.8,13.49,8.2,29.37,9.93,47.2,5.16,32.4-8.66,64.77-37.39,86.22-60C390.61,82.94,415.56,49,433.08,17A11.5,11.5,0,0,0,428.54,1.42Z"/><path class="cls-1" d="M629.59,488.13a456.64,456.64,0,0,1-94.66-69.64c-37.79-36.49-64.7-76.34-77.82-115.26-14.58-43.25-12-83.82,7.81-120.58,32.47-60.37,77.87-77,110.24-80.27a148,148,0,0,1,54.42,5V83.6a170.14,170.14,0,0,0-56.75-4.1,150.28,150.28,0,0,0-70.5,25.77c-23,15.78-42.43,38.15-57.67,66.49a163.29,163.29,0,0,0-19.57,69.32c-1.17,22.53,2.27,45.91,10.22,69.5C449.6,353,478.53,396,519,435a473.12,473.12,0,0,0,110.64,79.22Z"/><path class="cls-2" d="M57.44,51.5a7,7,0,0,1,2.86,5.32,7,7,0,0,1-1.62,5.82,9.25,9.25,0,0,1-6,2.64l-4,.44,1,8.59-4.33.48L42.65,51.17,51,50.25A9.26,9.26,0,0,1,57.44,51.5Zm-5.2,10a4,4,0,0,0,2.9-1.39,3.77,3.77,0,0,0,.72-2.82,3.83,3.83,0,0,0-1.32-2.62A4,4,0,0,0,51.39,54l-4,.44L48.23,62Z"/><path class="cls-2" d="M69.24,57.76q1.18-4,4.38-4.35a6.32,6.32,0,0,1,1.59.08l.4,4.3a9.6,9.6,0,0,0-2,0q-4.29.48-3.63,6.41l.86,7.75-4.29.48-2-17.72,4.29-.48Z"/><path class="cls-2" d="M93.92,56.34a10,10,0,0,1,.77,2.75,16.46,16.46,0,0,1,.11,2.31L83.37,62.67A6.18,6.18,0,0,0,84.82,66a3.47,3.47,0,0,0,3.13,1,2.86,2.86,0,0,0,2.91-2.68l4.33-.48a6.39,6.39,0,0,1-2,4.45,8.08,8.08,0,0,1-4.88,2.16,7.72,7.72,0,0,1-6.14-1.9A9.73,9.73,0,0,1,79,62.09,9.62,9.62,0,0,1,80.68,55a7.75,7.75,0,0,1,5.58-3.13,6.9,6.9,0,0,1,6,1.95A8.12,8.12,0,0,1,93.92,56.34Zm-7.25-1.07A3.57,3.57,0,0,0,84,56.77a5.35,5.35,0,0,0-.86,3.17l7.53-.84q-.32-2.87-2.25-3.65A3.58,3.58,0,0,0,86.67,55.27Z"/><path class="cls-2" d="M102.74,62.95q.35,2.5,4,2.1a4,4,0,0,0,2.21-.85,1.71,1.71,0,0,0,.74-1.5,1.5,1.5,0,0,0-.68-1.18,5.41,5.41,0,0,0-1.8-.61l-4-1q-4.46-1-4.84-4.4a4.21,4.21,0,0,1,1.62-3.84,9.6,9.6,0,0,1,5.27-2,8.17,8.17,0,0,1,5.4.91,4.88,4.88,0,0,1,2.33,3.53l-4,.45a1.78,1.78,0,0,0-1-1.29,4,4,0,0,0-2.24-.27,3.74,3.74,0,0,0-2.14.81,1.61,1.61,0,0,0-.64,1.38q.14,1.27,2.36,1.65L109.6,58A8.36,8.36,0,0,1,113,59.43a3.72,3.72,0,0,1,1.42,2.66,4.71,4.71,0,0,1-1.65,4,9,9,0,0,1-5.49,2.3,9.56,9.56,0,0,1-5.85-.92,5.17,5.17,0,0,1-2.67-4.1Z"/><path class="cls-2" d="M121.91,60.82q.35,2.5,4,2.1a4,4,0,0,0,2.21-.85,1.71,1.71,0,0,0,.74-1.5,1.5,1.5,0,0,0-.68-1.18,5.41,5.41,0,0,0-1.8-.61l-4-1q-4.46-1-4.84-4.4a4.21,4.21,0,0,1,1.62-3.84,9.6,9.6,0,0,1,5.27-2,8.17,8.17,0,0,1,5.4.91,4.88,4.88,0,0,1,2.33,3.53l-4,.45a1.78,1.78,0,0,0-1-1.29,4,4,0,0,0-2.24-.27,3.74,3.74,0,0,0-2.14.81,1.61,1.61,0,0,0-.64,1.38q.14,1.27,2.36,1.65l4.36,1.1a8.36,8.36,0,0,1,3.38,1.41A3.72,3.72,0,0,1,133.57,60a4.71,4.71,0,0,1-1.65,4,9,9,0,0,1-5.49,2.3,9.56,9.56,0,0,1-5.85-.92,5.17,5.17,0,0,1-2.67-4.1Z"/><path class="cls-2" d="M156.17,75.29a7,7,0,0,1,2.25,5.6,7,7,0,0,1-2.25,5.6,9.25,9.25,0,0,1-6.28,2h-4v8.64h-4.36V73.33h8.38A9.26,9.26,0,0,1,156.17,75.29Zm-6.28,9.39a4,4,0,0,0,3-1.06,3.77,3.77,0,0,0,1-2.73,3.83,3.83,0,0,0-1-2.75,4,4,0,0,0-3-1.08h-4v7.61Z"/><path class="cls-2" d="M167.2,82.81Q168.81,79,172,79a6.32,6.32,0,0,1,1.57.26l-.07,4.32a9.6,9.6,0,0,0-2-.22q-4.32,0-4.32,6v7.8h-4.32V79.26h4.32Z"/><path class="cls-2" d="M191.89,84.13a10,10,0,0,1,.46,2.82,16.46,16.46,0,0,1-.15,2.31H180.71a6.18,6.18,0,0,0,1.06,3.51,3.47,3.47,0,0,0,3,1.35A2.86,2.86,0,0,0,188,91.78h4.36A6.39,6.39,0,0,1,189.86,96a8.08,8.08,0,0,1-5.09,1.61A7.72,7.72,0,0,1,178.88,95a9.73,9.73,0,0,1-2.45-6.85,9.62,9.62,0,0,1,2.45-6.88,7.75,7.75,0,0,1,5.89-2.49,6.9,6.9,0,0,1,5.75,2.6A8.12,8.12,0,0,1,191.89,84.13Zm-7.08-1.87A3.57,3.57,0,0,0,182,83.45a5.35,5.35,0,0,0-1.21,3.06h7.58q0-2.89-1.83-3.88A3.58,3.58,0,0,0,184.81,82.26Z"/><path class="cls-2" d="M199.93,91.67q.07,2.53,3.7,2.53a4,4,0,0,0,2.29-.6,1.71,1.71,0,0,0,.9-1.41,1.5,1.5,0,0,0-.55-1.24,5.41,5.41,0,0,0-1.72-.81l-3.88-1.39q-4.32-1.5-4.32-4.91a4.21,4.21,0,0,1,2-3.64,9.6,9.6,0,0,1,5.45-1.37,8.17,8.17,0,0,1,5.27,1.5A4.88,4.88,0,0,1,211,84.09H207a1.78,1.78,0,0,0-.84-1.39,4,4,0,0,0-2.2-.51,3.74,3.74,0,0,0-2.21.57,1.61,1.61,0,0,0-.79,1.3q0,1.28,2.16,1.9l4.21,1.57a8.36,8.36,0,0,1,3.2,1.78,3.72,3.72,0,0,1,1.12,2.8,4.71,4.71,0,0,1-2.09,3.81,9,9,0,0,1-5.71,1.68A9.56,9.56,0,0,1,198.1,96a5.17,5.17,0,0,1-2.2-4.37Z"/><path class="cls-2" d="M219.22,91.67q.07,2.53,3.7,2.53a4,4,0,0,0,2.29-.6,1.71,1.71,0,0,0,.9-1.41,1.5,1.5,0,0,0-.55-1.24,5.41,5.41,0,0,0-1.72-.81L220,88.74q-4.32-1.5-4.32-4.91a4.21,4.21,0,0,1,2-3.64,9.6,9.6,0,0,1,5.45-1.37,8.17,8.17,0,0,1,5.27,1.5,4.88,4.88,0,0,1,1.92,3.77h-4.06a1.78,1.78,0,0,0-.84-1.39,4,4,0,0,0-2.2-.51,3.74,3.74,0,0,0-2.21.57,1.61,1.61,0,0,0-.79,1.3q0,1.28,2.16,1.9l4.21,1.57a8.36,8.36,0,0,1,3.2,1.78,3.72,3.72,0,0,1,1.12,2.8,4.71,4.71,0,0,1-2.09,3.81,9,9,0,0,1-5.71,1.68A9.56,9.56,0,0,1,217.39,96a5.17,5.17,0,0,1-2.2-4.37Z"/><path class="cls-2" d="M177.67,139.2a8.09,8.09,0,0,1,1.71,11.07,9.25,9.25,0,0,1-5.91,2.89l-4,.61,1.32,8.54-4.31.66-3.62-23.48,8.29-1.28A9.26,9.26,0,0,1,177.67,139.2Zm-4.77,10.24a4,4,0,0,0,2.84-1.51,3.77,3.77,0,0,0,.6-2.85,3.83,3.83,0,0,0-1.43-2.56,4,4,0,0,0-3.17-.6l-4,.61,1.16,7.53Z"/><path class="cls-2" d="M189.73,145q1-4,4.19-4.54a6.32,6.32,0,0,1,1.59,0l.59,4.28a9.6,9.6,0,0,0-2,.09q-4.27.66-3.36,6.56l1.19,7.71-4.27.66-2.72-17.62,4.27-.66Z"/><path class="cls-2" d="M214.33,142.5a10,10,0,0,1,.88,2.72,16.46,16.46,0,0,1,.21,2.3l-11.36,1.75a6.18,6.18,0,0,0,1.58,3.31,3.47,3.47,0,0,0,3.17.88,2.86,2.86,0,0,0,2.79-2.8l4.31-.66a6.39,6.39,0,0,1-1.78,4.53,8.08,8.08,0,0,1-4.78,2.37,7.72,7.72,0,0,1-6.22-1.63,9.73,9.73,0,0,1-3.47-6.39,9.62,9.62,0,0,1,1.38-7.18,7.75,7.75,0,0,1,5.45-3.36,6.9,6.9,0,0,1,6.08,1.69A8.12,8.12,0,0,1,214.33,142.5Zm-7.29-.77a3.57,3.57,0,0,0-2.64,1.61,5.35,5.35,0,0,0-.73,3.21l7.49-1.15q-.44-2.86-2.4-3.56A3.58,3.58,0,0,0,207,141.73Z"/><path class="cls-2" d="M223.42,148.72q.46,2.49,4,1.93a4,4,0,0,0,2.17-.95,1.71,1.71,0,0,0,.67-1.53,1.5,1.5,0,0,0-.73-1.15,5.41,5.41,0,0,0-1.82-.53l-4-.78q-4.5-.82-5-4.19a4.21,4.21,0,0,1,1.45-3.91,9.6,9.6,0,0,1,5.18-2.19,8.17,8.17,0,0,1,5.44.68,4.88,4.88,0,0,1,2.47,3.43l-4,.62a1.78,1.78,0,0,0-1-1.25,4,4,0,0,0-2.25-.17,3.74,3.74,0,0,0-2.1.9,1.61,1.61,0,0,0-.58,1.4q.2,1.27,2.42,1.55l4.4.91a8.36,8.36,0,0,1,3.44,1.27,3.72,3.72,0,0,1,1.53,2.6,4.71,4.71,0,0,1-1.48,4.08,9,9,0,0,1-5.39,2.53,9.56,9.56,0,0,1-5.88-.67,5.17,5.17,0,0,1-2.84-4Z"/><path class="cls-2" d="M252.57,136.6a10,10,0,0,1,.88,2.72,16.46,16.46,0,0,1,.21,2.3l-11.36,1.75a6.18,6.18,0,0,0,1.58,3.31,3.47,3.47,0,0,0,3.17.88,2.86,2.86,0,0,0,2.79-2.8l4.31-.66a6.39,6.39,0,0,1-1.78,4.53,8.08,8.08,0,0,1-4.78,2.37,7.72,7.72,0,0,1-6.22-1.63A9.73,9.73,0,0,1,237.9,143a9.62,9.62,0,0,1,1.38-7.18,7.75,7.75,0,0,1,5.45-3.36,6.9,6.9,0,0,1,6.08,1.69A8.12,8.12,0,0,1,252.57,136.6Zm-7.29-.77a3.57,3.57,0,0,0-2.64,1.61,5.35,5.35,0,0,0-.73,3.21l7.49-1.15q-.44-2.86-2.4-3.56A3.58,3.58,0,0,0,245.29,135.83Z"/><path class="cls-2" d="M262.05,133.36a6.47,6.47,0,0,1,10.26-3,9.1,9.1,0,0,1,2.52,5.39L276.42,146l-4.27.66-1.58-10.27a4.19,4.19,0,0,0-1.4-2.8,3.5,3.5,0,0,0-2.79-.59,3.66,3.66,0,0,0-2.68,2,7.6,7.6,0,0,0-.58,4.76l1.26,8.14-4.27.66L257.39,131l3.73-.57Z"/><path class="cls-2" d="M292.48,143.11a11.23,11.23,0,0,1-3.62,1.52,8.1,8.1,0,0,1-2.46,0,5.5,5.5,0,0,1-2-.69,5.26,5.26,0,0,1-2.29-3.83l-1.52-9.84-2.46.38-.44-2.86,2.46-.38-.71-4.63,4.27-.66.71,4.63,4.78-.74.44,2.86-4.78.74,1.5,9.7a1.89,1.89,0,0,0,2.4,1.85,8.8,8.8,0,0,0,2.62-1Z"/><path class="cls-2" d="M298.49,137.15q.46,2.49,4,1.93a4,4,0,0,0,2.17-.95,1.71,1.71,0,0,0,.67-1.53,1.5,1.5,0,0,0-.73-1.15,5.41,5.41,0,0,0-1.82-.53l-4-.78q-4.5-.82-5-4.19A4.21,4.21,0,0,1,295.2,126a9.6,9.6,0,0,1,5.18-2.19,8.17,8.17,0,0,1,5.44.68A4.88,4.88,0,0,1,308.3,128l-4,.62a1.78,1.78,0,0,0-1-1.25,4,4,0,0,0-2.25-.17,3.74,3.74,0,0,0-2.1.9,1.61,1.61,0,0,0-.58,1.4q.2,1.27,2.42,1.55l4.4.91a8.36,8.36,0,0,1,3.44,1.27,3.72,3.72,0,0,1,1.53,2.6,4.71,4.71,0,0,1-1.48,4.08,9,9,0,0,1-5.39,2.53,9.56,9.56,0,0,1-5.88-.67,5.17,5.17,0,0,1-2.84-4Z"/><path class="cls-2" d="M313.48,128.21a2.71,2.71,0,0,1-1.14-1.9,2.83,2.83,0,0,1,.51-2.19,2.92,2.92,0,0,1,2-1.16,3,3,0,0,1,2.3.5,2.77,2.77,0,0,1,1.19,1.93,2.66,2.66,0,0,1-.56,2.16,3.13,3.13,0,0,1-2,1.13A3,3,0,0,1,313.48,128.21ZM315.14,139a2.71,2.71,0,0,1-1.14-1.9,2.83,2.83,0,0,1,.51-2.19,2.93,2.93,0,0,1,2-1.16,3.05,3.05,0,0,1,2.3.5,2.78,2.78,0,0,1,1.19,1.93,2.66,2.66,0,0,1-.56,2.16,3.13,3.13,0,0,1-2,1.13A3,3,0,0,1,315.14,139Z"/><path class="cls-2" d="M395.39,117.79q0-3.17-3.7-3.91a4.92,4.92,0,0,0-3,.17,2.19,2.19,0,0,0-1.38,1.57,2.12,2.12,0,0,0,.34,1.77,6.5,6.5,0,0,0,1.85,1.51l4.67,3a10.66,10.66,0,0,1,3.48,3.33,5.55,5.55,0,0,1,.64,4.1,6.13,6.13,0,0,1-3.37,4.53q-2.74,1.38-7.12.5a10,10,0,0,1-5.9-3.16,7.53,7.53,0,0,1-1.66-6.45l4.2.84a3.54,3.54,0,0,0,2.26,4.22,9.23,9.23,0,0,0,2.32.72,5.41,5.41,0,0,0,2.88-.19,2.26,2.26,0,0,0,1.65-1.72,2.59,2.59,0,0,0-.3-2,6.6,6.6,0,0,0-2-1.68L387,122.12a12.37,12.37,0,0,1-3.64-3.27,5.27,5.27,0,0,1-.66-4.16,5.54,5.54,0,0,1,3.18-4.14,10.2,10.2,0,0,1,6.58-.51,9.3,9.3,0,0,1,5.7,3,7.45,7.45,0,0,1,1.44,5.57Z"/><path class="cls-2" d="M418.73,126.78a10,10,0,0,1-.1,2.85,16.46,16.46,0,0,1-.6,2.23l-11.27-2.25a6.18,6.18,0,0,0,.35,3.65,3.47,3.47,0,0,0,2.68,1.92,2.86,2.86,0,0,0,3.58-1.67l4.27.85a6.39,6.39,0,0,1-3.23,3.65,8.08,8.08,0,0,1-5.31.58,7.72,7.72,0,0,1-5.28-3.67,9.73,9.73,0,0,1-1.06-7.19,9.62,9.62,0,0,1,3.75-6.27,7.75,7.75,0,0,1,6.27-1.29,6.9,6.9,0,0,1,5.13,3.67A8.12,8.12,0,0,1,418.73,126.78Zm-6.58-3.22a3.57,3.57,0,0,0-3,.61,5.35,5.35,0,0,0-1.78,2.76l7.43,1.48q.57-2.84-1-4.16A3.58,3.58,0,0,0,412.15,123.57Z"/><path class="cls-2" d="M428.75,127a6.47,6.47,0,0,1,10.66.71,9.1,9.1,0,0,1,.51,5.93l-2,10.19-4.24-.85,2-10.19a4.19,4.19,0,0,0-.35-3.11,3.5,3.5,0,0,0-2.42-1.51,3.66,3.66,0,0,0-3.19.93,7.6,7.6,0,0,0-2.18,4.27l-1.61,8.08-4.24-.85,3.48-17.45,3.7.74Z"/><path class="cls-2" d="M454,146.59a11.23,11.23,0,0,1-3.92.19,8.1,8.1,0,0,1-2.32-.8,5.5,5.5,0,0,1-1.62-1.33,5.26,5.26,0,0,1-.84-4.39l2-9.76L444.8,130l.57-2.84,2.44.49.92-4.6,4.24.85-.92,4.6,4.74.95-.57,2.84-4.74-.95L449.55,141a1.89,1.89,0,0,0,1.62,2.56,8.8,8.8,0,0,0,2.81,0Z"/><path class="cls-2" d="M462.71,124.78a2.46,2.46,0,0,1,1-1.68,3.2,3.2,0,0,1,3.86.77,2.75,2.75,0,0,1-.72,3.63,3.2,3.2,0,0,1-3.86-.77A2.46,2.46,0,0,1,462.71,124.78Zm-.62,5.7,4.24.85-3.49,17.48-4.24-.85Z"/><path class="cls-2" d="M488.35,139.2a6.1,6.1,0,0,1,6.68-2.59,6,6,0,0,1,4.42,3.09,8.75,8.75,0,0,1,.53,5.93l-2,10.19-4.27-.85,2-10.19a4.19,4.19,0,0,0-.35-3.11,3.5,3.5,0,0,0-2.42-1.51,3.35,3.35,0,0,0-3.06.92,8,8,0,0,0-2,4.22l-1.63,8.18-4.24-.85,2-10.19a4.19,4.19,0,0,0-.35-3.11,3.5,3.5,0,0,0-2.42-1.51,3.66,3.66,0,0,0-3.19.93,7.6,7.6,0,0,0-2.18,4.27l-1.61,8.08-4.24-.85,3.48-17.45,3.7.74-.14,3.11a5.88,5.88,0,0,1,6.22-2.38,6.38,6.38,0,0,1,3.44,1.73A6.17,6.17,0,0,1,488.35,139.2Z"/><path class="cls-2" d="M520.14,147a10,10,0,0,1-.1,2.85,16.48,16.48,0,0,1-.6,2.23l-11.27-2.25a6.18,6.18,0,0,0,.35,3.65,3.47,3.47,0,0,0,2.68,1.92,2.86,2.86,0,0,0,3.58-1.67l4.27.85a6.39,6.39,0,0,1-3.23,3.65,8.08,8.08,0,0,1-5.31.58,7.72,7.72,0,0,1-5.28-3.67,9.73,9.73,0,0,1-1.06-7.19,9.62,9.62,0,0,1,3.75-6.27,7.75,7.75,0,0,1,6.27-1.29,6.9,6.9,0,0,1,5.13,3.67A8.12,8.12,0,0,1,520.14,147Zm-6.58-3.22a3.57,3.57,0,0,0-3,.61,5.35,5.35,0,0,0-1.78,2.76l7.43,1.48q.57-2.84-1-4.16A3.58,3.58,0,0,0,513.56,143.82Z"/><path class="cls-2" d="M530.16,147.25a6.47,6.47,0,0,1,10.66.71,9.1,9.1,0,0,1,.51,5.93l-2,10.19-4.24-.85,2-10.19a4.19,4.19,0,0,0-.35-3.11,3.5,3.5,0,0,0-2.42-1.51,3.66,3.66,0,0,0-3.19.93,7.6,7.6,0,0,0-2.18,4.27l-1.61,8.08-4.24-.85,3.48-17.45,3.7.74Z"/><path class="cls-2" d="M555.4,166.85a11.23,11.23,0,0,1-3.92.19,8.1,8.1,0,0,1-2.32-.8,5.5,5.5,0,0,1-1.62-1.33,5.26,5.26,0,0,1-.84-4.39l2-9.76-2.44-.49.57-2.84,2.44.49.92-4.6,4.24.85-.92,4.6,4.74.95-.57,2.84-4.74-.95L551,161.22a1.89,1.89,0,0,0,1.62,2.56,8.8,8.8,0,0,0,2.81,0Z"/><path class="cls-2" d="M563.09,163.31q-.42,2.49,3.13,3.2a4,4,0,0,0,2.36-.14,1.71,1.71,0,0,0,1.16-1.21,1.5,1.5,0,0,0-.29-1.33,5.41,5.41,0,0,0-1.53-1.13l-3.53-2.12q-3.94-2.32-3.28-5.66a4.21,4.21,0,0,1,2.71-3.17,9.6,9.6,0,0,1,5.62-.28,8.17,8.17,0,0,1,4.88,2.5,4.88,4.88,0,0,1,1.15,4.07l-4-.8a1.78,1.78,0,0,0-.55-1.53,4,4,0,0,0-2.05-.93,3.74,3.74,0,0,0-2.28.12,1.61,1.61,0,0,0-1,1.12q-.25,1.26,1.75,2.29l3.82,2.37a8.36,8.36,0,0,1,2.79,2.37,3.72,3.72,0,0,1,.55,3,4.71,4.71,0,0,1-2.79,3.32,9,9,0,0,1-5.93.53,9.56,9.56,0,0,1-5.3-2.64,5.17,5.17,0,0,1-1.3-4.72Z"/></svg>