<svg id="Layer_1" data-name="Layer 1" xmlns="http://www.w3.org/2000/svg" viewBox="0 0 41.15 41.15"><title>favicon-ea</title><path d="M5.56,22.53a5.56,5.56,0,0,1,.19-2.34,5.83,5.83,0,0,1,1.15-2.1A6.88,6.88,0,0,1,9,16.47a8.61,8.61,0,0,1,2.94-.89,8.67,8.67,0,0,1,3.09.11,6.83,6.83,0,0,1,2.46,1.08,6,6,0,0,1,1.71,1.87A6.47,6.47,0,0,1,20,21.09c0,.11,0,.23,0,.36s0,.25,0,.36L9,23.25a2.7,2.7,0,0,0,.74.88,3.86,3.86,0,0,0,1.15.62,6.06,6.06,0,0,0,1.53.3A9.14,9.14,0,0,0,14.27,25a9.73,9.73,0,0,0,2-.48,14.94,14.94,0,0,0,1.84-.79l1.28,2.11a12.3,12.3,0,0,1-1.1.62,10.22,10.22,0,0,1-1.19.5,12.79,12.79,0,0,1-1.31.38q-.69.16-1.46.26a11.47,11.47,0,0,1-3.52,0,7.51,7.51,0,0,1-2.66-1,5.4,5.4,0,0,1-1.76-1.74A5.75,5.75,0,0,1,5.56,22.53Zm11.11-2.61a3,3,0,0,0-.61-.84,3.27,3.27,0,0,0-.92-.63,4.26,4.26,0,0,0-1.21-.34,5.49,5.49,0,0,0-1.46,0,5.76,5.76,0,0,0-1.49.39,4.66,4.66,0,0,0-1.13.66,3.45,3.45,0,0,0-.76.85,2.84,2.84,0,0,0-.39.95Z"/><path d="M21.61,22.68a3.26,3.26,0,0,1,.17-1.58,3.37,3.37,0,0,1,.94-1.34,5.69,5.69,0,0,1,1.73-1A10.73,10.73,0,0,1,27,18.13a17.5,17.5,0,0,1,2.3-.14,21.11,21.11,0,0,1,2.53.16,2.36,2.36,0,0,0-.47-1,2.66,2.66,0,0,0-.9-.71,4.07,4.07,0,0,0-1.3-.37,6.53,6.53,0,0,0-1.66,0q-.5.06-1.08.2t-1.21.34q-.62.2-1.22.46a8.12,8.12,0,0,0-1.1.58l-1.21-2.29q.63-.32,1.37-.62t1.51-.54q.77-.25,1.56-.43t1.53-.28a6.5,6.5,0,0,1,5.1,1Q34.52,16,35,19.5l.66,5.1L32.7,25l-.14-1.1a9.77,9.77,0,0,1-.93.64,9,9,0,0,1-1.12.57,10.64,10.64,0,0,1-1.33.46,11,11,0,0,1-1.53.31,8.82,8.82,0,0,1-2.44,0,5.27,5.27,0,0,1-1.84-.6,3.52,3.52,0,0,1-1.21-1.1A3.44,3.44,0,0,1,21.61,22.68Zm3.08-.5a1.11,1.11,0,0,0,.22.53,1.35,1.35,0,0,0,.54.4,2.9,2.9,0,0,0,.88.22,5.33,5.33,0,0,0,1.25,0A8,8,0,0,0,29.06,23a8.75,8.75,0,0,0,1.3-.54,6.93,6.93,0,0,0,1.06-.67,4.74,4.74,0,0,0,.76-.72l-.07-.52q-.7-.1-1.38-.14t-1.29,0q-.61,0-1.14,0l-.93.09a7.2,7.2,0,0,0-1.35.29,3.2,3.2,0,0,0-.84.41,1.16,1.16,0,0,0-.42.49A1.05,1.05,0,0,0,24.69,22.17Z"/></svg>