<?xml version="1.0" encoding="utf-8"?>
<!-- Generator: Adobe Illustrator 24.2.0, SVG Export Plug-In . SVG Version: 6.00 Build 0)  -->
<svg version="1.1" id="Layer_1" xmlns="http://www.w3.org/2000/svg" xmlns:xlink="http://www.w3.org/1999/xlink" x="0px" y="0px"
	 viewBox="0 0 20.8 20.8" style="enable-background:new 0 0 20.8 20.8;" xml:space="preserve">
<path d="M10.4,0C4.7,0,0,4.7,0,10.4s4.7,10.4,10.4,10.4s10.4-4.7,10.4-10.4C20.8,4.7,16.1,0,10.4,0z M10.4,18.9
	c-4.7,0-8.5-3.8-8.5-8.5s3.8-8.5,8.5-8.5s8.5,3.8,8.5,8.5C18.9,15.1,15.1,18.9,10.4,18.9z"/>
<g>
	<path d="M13.8,4.9c0.7,0.6,1,1.5,1,2.6c0,0.9-0.3,1.7-0.8,2.2c-0.5,0.5-1.3,0.9-2.3,1.2l-0.1,0.9c0,0.2-0.1,0.3-0.2,0.4
		c-0.1,0.1-0.4,0.1-0.8,0.1s-0.6,0-0.8-0.1c-0.1-0.1-0.2-0.2-0.2-0.4L9.5,9.7c0-0.3,0.1-0.5,0.3-0.5l1-0.2c0.5-0.1,0.8-0.3,1.1-0.5
		c0.2-0.2,0.4-0.6,0.4-1c0-0.5-0.1-0.8-0.4-1c-0.3-0.2-0.7-0.4-1.2-0.4c-0.5,0-1,0.1-1.5,0.3v0.9c0,0.2-0.1,0.4-0.2,0.5
		C8.8,8,8.5,8,8.1,8C7.7,8,7.4,8,7.2,7.9C7,7.8,6.9,7.6,6.9,7.4V5.5C6.9,5.2,7,5,7.3,4.8c1.3-0.6,2.4-0.9,3.5-0.9
		C12.1,3.9,13.1,4.3,13.8,4.9z M11.8,14c0.2,0.1,0.3,0.3,0.3,0.5v1.8c0,0.2-0.1,0.4-0.3,0.5c-0.2,0.1-0.6,0.1-1.1,0.1
		s-0.9,0-1.1-0.1c-0.2-0.1-0.3-0.3-0.3-0.5v-1.8c0-0.2,0.1-0.4,0.3-0.5c0.2-0.1,0.6-0.1,1.1-0.1S11.6,13.9,11.8,14z"/>
</g>
</svg>
