<svg id="Layer_1" data-name="Layer 1" xmlns="http://www.w3.org/2000/svg" viewBox="0 0 20.81 20.81"><title>info</title><path d="M10.41,0a10.4,10.4,0,1,0,10.4,10.4A10.42,10.42,0,0,0,10.41,0Zm0,18.89a8.49,8.49,0,1,1,8.49-8.49A8.5,8.5,0,0,1,10.41,18.89Z"/><path d="M11.37,13.76a1.39,1.39,0,0,0-.47-.26,2.11,2.11,0,0,0-1.25,0,1.43,1.43,0,0,0-.47.26,1.15,1.15,0,0,0-.3.39,1.12,1.12,0,0,0,.3,1.34,1.51,1.51,0,0,0,.47.26,2,2,0,0,0,1.25,0,1.47,1.47,0,0,0,.47-.26,1.13,1.13,0,0,0,.3-.39,1.14,1.14,0,0,0,0-1A1.17,1.17,0,0,0,11.37,13.76Z"/><path d="M13.8,6.38a4.36,4.36,0,0,0-1.35-.54,8,8,0,0,0-1.8-.19,10.45,10.45,0,0,0-1.53.11A11.05,11.05,0,0,0,7.78,6a9,9,0,0,0-1.1.38,6.93,6.93,0,0,0-.81.39l.92,1.51A6,6,0,0,1,7.58,8a8.58,8.58,0,0,1,1-.28,10.52,10.52,0,0,1,1.08-.19,9.08,9.08,0,0,1,1.11-.07,6,6,0,0,1,.92.06,2.84,2.84,0,0,1,.69.19,1.14,1.14,0,0,1,.44.31.64.64,0,0,1,.15.42.66.66,0,0,1-.18.45,1.55,1.55,0,0,1-.62.37A6,6,0,0,1,11,9.5a17.53,17.53,0,0,1-1.79.16v2.47H11V11a10.9,10.9,0,0,0,1.89-.4,4.27,4.27,0,0,0,1.21-.58,2,2,0,0,0,.65-.75,2.14,2.14,0,0,0,.19-.91,2.29,2.29,0,0,0-.29-1.16A2.49,2.49,0,0,0,13.8,6.38Z"/></svg>