<svg xmlns="http://www.w3.org/2000/svg" viewBox="0 0 10.62 52.96"><defs><style>.cls-1{fill:#282828;}.cls-2{fill:#f2f2f2;}</style></defs><title>more-2</title><g id="Layer_3" data-name="Layer 3"><polygon class="cls-1" points="0.7 7.38 5.79 7.08 3.2 4.69 5.49 2.01 0.4 2.31 0.29 0.58 7.85 0.13 7.95 1.74 5.49 4.55 8.22 6.97 8.35 8.54 8.36 8.66 0.8 9.11 0.7 7.38"/><path class="cls-2" d="M7.74.26l.09,1.48L5.32,4.56l2.82,2.5.09,1.48L.92,9,.83,7.49l5.26-.31L3.37,4.68l2.4-2.81L.51,2.18.43.7,7.74.26M8,0H7.72L.41.45H.16V.71L.26,2.2v.25H.53L5.2,2.15l-2,2.36L3,4.7l.18.16L5.48,7,.81,7.24H.56v.25L.67,9v.25H.93l7.31-.43h.25V8.53L8.39,7v-.1l-.08-.07L5.67,4.54,8,1.91l.07-.08v-.1L8,.25V0Z"/><path class="cls-1" d="M5,20H4.73a3.93,3.93,0,0,1-1.56-.42,3.67,3.67,0,0,1-1.18-1,4,4,0,0,1-.71-1.42,5.47,5.47,0,0,1,.23-3.49,4,4,0,0,1,.89-1.31,3.58,3.58,0,0,1,1.29-.8A3.82,3.82,0,0,1,5,11.37h.29a3.85,3.85,0,0,1,1.54.42,3.57,3.57,0,0,1,1.17,1,4,4,0,0,1,.7,1.41,5.61,5.61,0,0,1-.23,3.49A4,4,0,0,1,7.59,19a3.57,3.57,0,0,1-1.28.8A3.74,3.74,0,0,1,5,20Zm0-6.89a2.26,2.26,0,0,0-.79.14,2.12,2.12,0,0,0-.77.49,2.41,2.41,0,0,0-.52.78,3.29,3.29,0,0,0-.13,2.06,2.43,2.43,0,0,0,.42.84,2.17,2.17,0,0,0,.7.58,2.32,2.32,0,0,0,1,.26H5a2.19,2.19,0,0,0,.79-.14,2.12,2.12,0,0,0,.75-.49,2.37,2.37,0,0,0,.5-.78,3.48,3.48,0,0,0,.13-2.07,2.4,2.4,0,0,0-.4-.84,2.06,2.06,0,0,0-.68-.58,2.32,2.32,0,0,0-1-.25Z"/><path class="cls-2" d="M5,11.5h.28a3.71,3.71,0,0,1,1.49.4,3.42,3.42,0,0,1,1.13.93,3.89,3.89,0,0,1,.68,1.37,5.48,5.48,0,0,1-.22,3.41,3.88,3.88,0,0,1-.85,1.27,3.45,3.45,0,0,1-1.24.78A3.61,3.61,0,0,1,5,19.88H4.74a3.77,3.77,0,0,1-1.51-.4,3.5,3.5,0,0,1-1.14-.93,3.9,3.9,0,0,1-.69-1.37,5.35,5.35,0,0,1,.22-3.41,3.9,3.9,0,0,1,.86-1.27,3.48,3.48,0,0,1,1.25-.78A3.68,3.68,0,0,1,5,11.5m0,6.89a2.32,2.32,0,0,0,.84-.15,2.22,2.22,0,0,0,.8-.52,2.52,2.52,0,0,0,.53-.82,3.6,3.6,0,0,0,.14-2.15,2.52,2.52,0,0,0-.42-.89,2.17,2.17,0,0,0-.72-.62,2.44,2.44,0,0,0-1-.27H5a2.39,2.39,0,0,0-.84.14,2.25,2.25,0,0,0-.81.52,2.55,2.55,0,0,0-.55.82,3.41,3.41,0,0,0-.14,2.15,2.54,2.54,0,0,0,.44.89,2.3,2.3,0,0,0,.74.62,2.44,2.44,0,0,0,1,.27H5m0-7.14a3.94,3.94,0,0,0-1.35.23,3.75,3.75,0,0,0-1.34.83,4.17,4.17,0,0,0-.92,1.35,5.6,5.6,0,0,0-.23,3.57,4.17,4.17,0,0,0,.74,1.46,3.77,3.77,0,0,0,1.22,1,4,4,0,0,0,1.61.43H5a3.87,3.87,0,0,0,1.34-.23,3.71,3.71,0,0,0,1.32-.83,4.15,4.15,0,0,0,.91-1.35,5.73,5.73,0,0,0,.23-3.57,4.15,4.15,0,0,0-.72-1.45,3.69,3.69,0,0,0-1.21-1,4,4,0,0,0-1.59-.43Zm0,6.89H4.85a2.2,2.2,0,0,1-.9-.24,2.06,2.06,0,0,1-.66-.55,2.3,2.3,0,0,1-.39-.8,3.17,3.17,0,0,1,.13-2,2.32,2.32,0,0,1,.49-.74,2,2,0,0,1,.72-.46A2.15,2.15,0,0,1,5,13.23h.18a2.2,2.2,0,0,1,.9.24,1.93,1.93,0,0,1,.64.54,2.29,2.29,0,0,1,.38.8,3.35,3.35,0,0,1-.13,2,2.28,2.28,0,0,1-.48.74,2,2,0,0,1-.71.46,2.08,2.08,0,0,1-.75.13Z"/><path class="cls-1" d="M.13,27.87,2.21,26.5V24.4H.13V22.66H7.7v3.85A5.58,5.58,0,0,1,7.52,28,3,3,0,0,1,7,29.08a2.18,2.18,0,0,1-.86.64A2.92,2.92,0,0,1,5,29.93a3.09,3.09,0,0,1-.81-.1A2.4,2.4,0,0,1,2.89,29a2.91,2.91,0,0,1-.36-.61L.13,30Zm3.62-1.32a2.41,2.41,0,0,0,.09.7,1.41,1.41,0,0,0,.25.49,1,1,0,0,0,.39.28,1.36,1.36,0,0,0,.52.1,1,1,0,0,0,.85-.37,1.91,1.91,0,0,0,.31-1.19V24.4H3.74Z"/><path class="cls-2" d="M.25,22.79H7.57v3.72A5.38,5.38,0,0,1,7.4,28a2.82,2.82,0,0,1-.51,1,2,2,0,0,1-.81.61,2.79,2.79,0,0,1-1.08.2,3,3,0,0,1-.78-.1A2.27,2.27,0,0,1,3,28.89a2.8,2.8,0,0,1-.4-.73L.25,29.76V27.94l2.08-1.38V24.27H.25V22.79M5,28.24a1.14,1.14,0,0,0,.95-.42,2,2,0,0,0,.34-1.27V24.27H3.62v2.28a2.49,2.49,0,0,0,.1.74,1.52,1.52,0,0,0,.28.53,1.11,1.11,0,0,0,.43.32,1.48,1.48,0,0,0,.57.11m-5-5.7v2H2.08v1.91l-2,1.3L0,27.81v2.42L.39,30l2.09-1.42a2.89,2.89,0,0,0,.31.5,2.52,2.52,0,0,0,1.36.9,3.21,3.21,0,0,0,.84.11,3.05,3.05,0,0,0,1.18-.22,2.3,2.3,0,0,0,.91-.68A3.08,3.08,0,0,0,7.64,28a5.65,5.65,0,0,0,.19-1.53v-4H0Zm3.87,2H6v2a1.8,1.8,0,0,1-.28,1.11A.9.9,0,0,1,5,28a1.23,1.23,0,0,1-.47-.09.86.86,0,0,1-.34-.25A1.28,1.28,0,0,1,4,27.21a2.26,2.26,0,0,1-.09-.66v-2Z"/><polygon class="cls-1" points="0.88 33.37 8.41 32.58 9.09 39.03 7.54 39.19 7.05 34.47 5.84 34.59 6.28 38.78 4.81 38.93 4.38 34.74 2.6 34.93 3.1 39.75 1.56 39.91 0.88 33.37"/><path class="cls-2" d="M8.3,32.72l.65,6.2-1.3.14-.49-4.73-1.45.15.44,4.18-1.22.13-.44-4.18-2,.21L3,39.64l-1.29.13L1,33.48l7.28-.76m.22-.27-.25,0L1,33.23l-.25,0,0,.25.66,6.3,0,.25.25,0L3,39.89l.25,0,0-.25L2.74,35l1.53-.16.41,3.94,0,.25L5,39l1.22-.13.25,0,0-.25L6,34.7l1-.1.47,4.48,0,.25.25,0L9,39.17l.25,0,0-.25-.65-6.2,0-.25Z"/><polygon class="cls-1" points="3.75 51.66 7.49 48.58 1.2 48.2 1.29 46.75 7.58 47.14 4.24 43.63 5.29 42.63 10.44 48.04 4.67 52.78 3.75 51.66"/><path class="cls-2" d="M5.29,42.81l5,5.22L4.69,52.6l-.76-.93,3.89-3.2-6.49-.39.07-1.2,6.48.39L4.42,43.64l.87-.83m0-.35-.18.17-.87.83-.18.17.17.18,3,3.18-5.85-.36-.25,0,0,.25-.07,1.2,0,.25.25,0,5.85.36-3.4,2.8-.19.16.16.19.76.93.16.19.19-.16,5.57-4.58.21-.17-.19-.19-5-5.22-.17-.18Z"/></g></svg>