<svg xmlns="http://www.w3.org/2000/svg" viewBox="0 0 10.01 52.34"><defs><style>.cls-1{fill:#282828;}</style></defs><title>more</title><g id="Layer_3" data-name="Layer 3"><path class="cls-1" d="M7.49,0l.09,1.48L5.07,4.3,7.89,6.8,8,8.28.67,8.71.58,7.23l5.26-.31L3.12,4.41,5.52,1.6.26,1.92.18.43Z"/><path class="cls-1" d="M5,11.24a3.71,3.71,0,0,1,1.49.4,3.42,3.42,0,0,1,1.13.93,3.89,3.89,0,0,1,.68,1.37,5.48,5.48,0,0,1-.22,3.41,3.88,3.88,0,0,1-.85,1.27A3.45,3.45,0,0,1,6,19.4a3.71,3.71,0,0,1-1.53.21A3.77,3.77,0,0,1,3,19.2a3.5,3.5,0,0,1-1.14-.93,3.89,3.89,0,0,1-.69-1.37,5.35,5.35,0,0,1,.22-3.41,3.9,3.9,0,0,1,.86-1.27,3.48,3.48,0,0,1,1.25-.78A3.77,3.77,0,0,1,5,11.24Zm-.1,1.48a2.47,2.47,0,0,0-1,.14,2.25,2.25,0,0,0-.81.52,2.55,2.55,0,0,0-.55.82,3.41,3.41,0,0,0-.14,2.15,2.54,2.54,0,0,0,.44.89,2.3,2.3,0,0,0,.74.62,2.44,2.44,0,0,0,1,.27,2.41,2.41,0,0,0,1-.14,2.22,2.22,0,0,0,.8-.52,2.52,2.52,0,0,0,.53-.82,3.6,3.6,0,0,0,.14-2.15,2.53,2.53,0,0,0-.42-.89A2.17,2.17,0,0,0,5.93,13,2.44,2.44,0,0,0,4.93,12.73Z"/><path class="cls-1" d="M7.32,22.52v3.72a5.38,5.38,0,0,1-.18,1.46,2.82,2.82,0,0,1-.51,1,2,2,0,0,1-.81.61,2.79,2.79,0,0,1-1.08.2,3,3,0,0,1-.78-.1,2.27,2.27,0,0,1-1.23-.81,2.8,2.8,0,0,1-.4-.73L0,29.49V27.68L2.08,26.3V24H0V22.52Zm-4,3.76a2.49,2.49,0,0,0,.1.74,1.52,1.52,0,0,0,.28.53,1.11,1.11,0,0,0,.43.32,1.48,1.48,0,0,0,.57.11,1.14,1.14,0,0,0,.95-.42A2,2,0,0,0,6,26.29V24H3.37Z"/><path class="cls-1" d="M8.05,32.45l.65,6.2-1.3.14-.49-4.73-1.45.15.44,4.18-1.22.13-.44-4.18-2,.21.5,4.82-1.29.13-.66-6.3Z"/><polygon class="cls-1" points="5.04 42.54 4.17 43.37 7.64 47.02 1.16 46.62 1.08 47.82 7.57 48.21 3.68 51.41 4.44 52.34 10.01 47.76 5.04 42.54"/></g></svg>